
<svg aria-hidden="true" style="position: absolute; width: 0; height: 0; overflow: hidden;" version="1.1" xmlns="http://www.w3.org/2000/svg" xmlns:xlink="http://www.w3.org/1999/xlink">
  <defs>

    <symbol id="icon-google" viewBox="0 0 109 32">
      <path fill="#222" style="fill: var(--color1, #222); stroke: var(--color2, #a6a6a6)" stroke="#a6a6a6" stroke-linejoin="miter" stroke-linecap="butt" stroke-miterlimit="4" stroke-width="0.7273" d="M3.636 0.364h101.818c1.807 0 3.273 1.465 3.273 3.273v24.727c0 1.807-1.465 3.273-3.273 3.273h-101.818c-1.807 0-3.273-1.465-3.273-3.273v-24.727c0-1.807 1.465-3.273 3.273-3.273z"></path>
      <path fill="#fff" style="fill: var(--color3, #fff)" d="M43.661 19.012c0.201 0 0.362 0.061 0.484 0.183 0.122 0.113 0.183 0.266 0.183 0.458v2.815c0 0.401-0.052 0.685-0.157 0.851s-0.319 0.301-0.641 0.406c-0.349 0.122-0.755 0.218-1.217 0.288s-0.908 0.105-1.335 0.105c-0.951 0-1.776-0.188-2.474-0.563s-1.235-0.916-1.61-1.623c-0.367-0.716-0.55-1.567-0.55-2.553 0-0.969 0.183-1.807 0.55-2.513 0.375-0.716 0.903-1.261 1.584-1.636 0.681-0.384 1.484-0.576 2.409-0.576 1.231 0 2.239 0.332 3.024 0.995 0.105 0.096 0.179 0.192 0.223 0.288 0.052 0.096 0.079 0.209 0.079 0.34 0 0.192-0.052 0.353-0.157 0.484s-0.231 0.196-0.38 0.196c-0.096 0-0.183-0.013-0.262-0.039-0.079-0.035-0.17-0.087-0.275-0.157-0.384-0.271-0.742-0.458-1.073-0.563-0.332-0.113-0.707-0.17-1.126-0.17-0.951 0-1.671 0.284-2.16 0.851-0.48 0.559-0.72 1.392-0.72 2.5 0 2.269 0.995 3.404 2.985 3.404 0.593 0 1.187-0.083 1.78-0.249v-2.317h-1.479c-0.209 0-0.375-0.052-0.497-0.157-0.113-0.105-0.17-0.253-0.17-0.445s0.057-0.34 0.17-0.445c0.122-0.105 0.288-0.157 0.497-0.157h2.317zM47.829 24.105c-0.655 0-1.231-0.135-1.728-0.406-0.489-0.271-0.868-0.659-1.139-1.165s-0.406-1.095-0.406-1.767c0-0.672 0.135-1.257 0.406-1.754 0.271-0.506 0.65-0.895 1.139-1.165 0.497-0.271 1.073-0.406 1.728-0.406s1.226 0.135 1.715 0.406c0.497 0.271 0.877 0.659 1.139 1.165 0.271 0.497 0.406 1.082 0.406 1.754s-0.135 1.261-0.406 1.767c-0.262 0.506-0.641 0.895-1.139 1.165-0.489 0.271-1.060 0.406-1.715 0.406zM47.816 22.835c0.532 0 0.938-0.175 1.217-0.524s0.419-0.864 0.419-1.545c0-0.672-0.14-1.183-0.419-1.532-0.279-0.358-0.681-0.537-1.204-0.537s-0.929 0.179-1.217 0.537c-0.279 0.349-0.419 0.86-0.419 1.532 0 0.681 0.14 1.196 0.419 1.545s0.681 0.524 1.204 0.524zM54.181 24.105c-0.655 0-1.231-0.135-1.728-0.406-0.489-0.271-0.868-0.659-1.139-1.165s-0.406-1.095-0.406-1.767c0-0.672 0.135-1.257 0.406-1.754 0.271-0.506 0.65-0.895 1.139-1.165 0.497-0.271 1.073-0.406 1.728-0.406s1.226 0.135 1.715 0.406c0.497 0.271 0.877 0.659 1.139 1.165 0.271 0.497 0.406 1.082 0.406 1.754s-0.135 1.261-0.406 1.767c-0.262 0.506-0.641 0.895-1.139 1.165-0.489 0.271-1.060 0.406-1.715 0.406zM54.168 22.835c0.532 0 0.938-0.175 1.217-0.524s0.419-0.864 0.419-1.545c0-0.672-0.14-1.183-0.419-1.532-0.279-0.358-0.681-0.537-1.204-0.537s-0.929 0.179-1.217 0.537c-0.279 0.349-0.419 0.86-0.419 1.532 0 0.681 0.14 1.196 0.419 1.545s0.681 0.524 1.204 0.524zM63.033 17.468c0.244 0 0.441 0.070 0.589 0.209s0.223 0.327 0.223 0.563v5.171c0 1.004-0.279 1.763-0.838 2.278s-1.383 0.772-2.474 0.772c-0.951 0-1.745-0.179-2.383-0.537-0.323-0.192-0.484-0.423-0.484-0.694 0-0.192 0.044-0.345 0.131-0.458 0.096-0.113 0.218-0.17 0.367-0.17 0.079 0 0.175 0.017 0.288 0.052 0.113 0.044 0.231 0.092 0.353 0.144 0.314 0.131 0.593 0.231 0.838 0.301 0.253 0.070 0.541 0.105 0.864 0.105 1.143 0 1.715-0.559 1.715-1.676v-0.838c-0.192 0.358-0.471 0.637-0.838 0.838-0.367 0.192-0.785 0.288-1.257 0.288-0.559 0-1.056-0.131-1.492-0.393-0.428-0.271-0.764-0.646-1.008-1.126s-0.367-1.034-0.367-1.663c0-0.628 0.118-1.183 0.353-1.663 0.244-0.489 0.585-0.864 1.021-1.126 0.436-0.271 0.934-0.406 1.492-0.406 0.471 0 0.89 0.1 1.257 0.301 0.367 0.192 0.646 0.467 0.838 0.825v-0.34c0-0.227 0.074-0.41 0.223-0.55s0.345-0.209 0.589-0.209zM60.559 22.547c0.524 0 0.929-0.17 1.217-0.511 0.297-0.34 0.445-0.807 0.445-1.401 0-0.602-0.148-1.073-0.445-1.414-0.288-0.34-0.694-0.511-1.217-0.511-0.515 0-0.921 0.17-1.217 0.511s-0.445 0.812-0.445 1.414c0 0.593 0.148 1.060 0.445 1.401s0.703 0.511 1.217 0.511zM65.173 24.079c-0.236 0-0.432-0.065-0.589-0.196-0.148-0.14-0.223-0.336-0.223-0.589v-7.815c0-0.253 0.074-0.445 0.223-0.576 0.157-0.131 0.353-0.196 0.589-0.196s0.432 0.065 0.589 0.196c0.157 0.131 0.236 0.323 0.236 0.576v7.815c0 0.253-0.079 0.449-0.236 0.589-0.157 0.131-0.353 0.196-0.589 0.196zM71.573 22.246c0.148 0 0.266 0.057 0.353 0.17 0.096 0.113 0.144 0.266 0.144 0.458 0 0.271-0.161 0.497-0.484 0.681-0.297 0.166-0.633 0.301-1.008 0.406-0.375 0.096-0.733 0.144-1.073 0.144-1.030 0-1.846-0.297-2.448-0.89s-0.903-1.405-0.903-2.435c0-0.655 0.131-1.235 0.393-1.741s0.628-0.899 1.1-1.178c0.48-0.279 1.021-0.419 1.623-0.419 0.576 0 1.078 0.127 1.505 0.38s0.759 0.611 0.995 1.073c0.236 0.463 0.353 1.008 0.353 1.636 0 0.375-0.166 0.563-0.497 0.563h-3.862c0.052 0.602 0.223 1.047 0.511 1.335 0.288 0.279 0.707 0.419 1.257 0.419 0.279 0 0.524-0.035 0.733-0.105 0.218-0.070 0.463-0.166 0.733-0.288 0.262-0.14 0.454-0.209 0.576-0.209zM69.308 18.593c-0.445 0-0.803 0.14-1.073 0.419-0.262 0.279-0.419 0.681-0.471 1.204h2.959c-0.017-0.532-0.148-0.934-0.393-1.204-0.244-0.279-0.585-0.419-1.021-0.419zM75.641 24.079c-0.253 0-0.458-0.074-0.615-0.223-0.148-0.157-0.223-0.367-0.223-0.628v-7.658c0-0.253 0.070-0.449 0.209-0.589 0.148-0.14 0.349-0.209 0.602-0.209h3.22c0.986 0 1.754 0.249 2.304 0.746 0.55 0.489 0.825 1.178 0.825 2.068s-0.275 1.584-0.825 2.081c-0.55 0.497-1.318 0.746-2.304 0.746h-2.343v2.815c0 0.262-0.079 0.471-0.236 0.628-0.148 0.148-0.353 0.223-0.615 0.223zM78.625 19.117c1.161 0 1.741-0.506 1.741-1.519s-0.58-1.519-1.741-1.519h-2.134v3.037h2.134zM82.935 24.079c-0.236 0-0.432-0.065-0.589-0.196-0.148-0.14-0.223-0.336-0.223-0.589v-7.815c0-0.253 0.074-0.445 0.223-0.576 0.157-0.131 0.353-0.196 0.589-0.196s0.432 0.065 0.589 0.196c0.157 0.131 0.236 0.323 0.236 0.576v7.815c0 0.253-0.079 0.449-0.236 0.589-0.157 0.131-0.353 0.196-0.589 0.196zM87.044 17.441c0.89 0 1.549 0.223 1.977 0.668 0.436 0.436 0.655 1.104 0.655 2.003v3.194c0 0.236-0.070 0.423-0.209 0.563-0.14 0.131-0.332 0.196-0.576 0.196-0.227 0-0.415-0.070-0.563-0.209-0.14-0.14-0.209-0.323-0.209-0.55v-0.288c-0.148 0.34-0.384 0.607-0.707 0.799-0.314 0.192-0.681 0.288-1.1 0.288-0.428 0-0.816-0.087-1.165-0.262s-0.624-0.415-0.825-0.72c-0.201-0.305-0.301-0.646-0.301-1.021 0-0.471 0.118-0.842 0.353-1.113 0.244-0.271 0.637-0.467 1.178-0.589s1.287-0.183 2.239-0.183h0.327v-0.301c0-0.428-0.092-0.737-0.275-0.929-0.183-0.201-0.48-0.301-0.89-0.301-0.253 0-0.511 0.039-0.772 0.118-0.262 0.070-0.572 0.175-0.929 0.314-0.227 0.113-0.393 0.17-0.497 0.17-0.157 0-0.288-0.057-0.393-0.17-0.096-0.113-0.144-0.262-0.144-0.445 0-0.148 0.035-0.275 0.105-0.38 0.079-0.113 0.205-0.218 0.38-0.314 0.305-0.166 0.668-0.297 1.087-0.393 0.428-0.096 0.847-0.144 1.257-0.144zM86.638 22.927c0.436 0 0.79-0.144 1.060-0.432 0.279-0.297 0.419-0.676 0.419-1.139v-0.275h-0.236c-0.585 0-1.039 0.026-1.361 0.079s-0.554 0.144-0.694 0.275c-0.14 0.131-0.209 0.31-0.209 0.537 0 0.279 0.096 0.511 0.288 0.694 0.201 0.175 0.445 0.262 0.733 0.262zM94.624 17.939c0.070-0.157 0.161-0.271 0.275-0.34 0.122-0.079 0.253-0.118 0.393-0.118 0.201 0 0.38 0.070 0.537 0.209 0.166 0.131 0.249 0.297 0.249 0.497 0 0.096-0.026 0.196-0.079 0.301l-3.574 7.488c-0.148 0.297-0.38 0.445-0.694 0.445-0.201 0-0.38-0.065-0.537-0.196-0.148-0.122-0.223-0.279-0.223-0.471 0-0.096 0.026-0.205 0.079-0.327l0.89-1.872-2.435-5.066c-0.044-0.087-0.065-0.188-0.065-0.301 0-0.201 0.083-0.371 0.249-0.511 0.175-0.14 0.371-0.209 0.589-0.209 0.148 0 0.284 0.039 0.406 0.118 0.122 0.070 0.218 0.183 0.288 0.34l1.833 4.045 1.82-4.032z"></path>
      <path fill="#fff" style="fill: var(--color3, #fff)" d="M40.095 8.865c0.111 0 0.201 0.034 0.269 0.102 0.068 0.063 0.102 0.148 0.102 0.255v1.564c0 0.223-0.029 0.381-0.087 0.473s-0.177 0.167-0.356 0.225c-0.194 0.068-0.419 0.121-0.676 0.16s-0.504 0.058-0.742 0.058c-0.529 0-0.987-0.104-1.375-0.313s-0.686-0.509-0.895-0.902c-0.204-0.398-0.305-0.87-0.305-1.418 0-0.538 0.102-1.004 0.305-1.396 0.209-0.398 0.502-0.701 0.88-0.909 0.378-0.213 0.824-0.32 1.338-0.32 0.684 0 1.244 0.184 1.68 0.553 0.058 0.053 0.099 0.107 0.124 0.16 0.029 0.053 0.044 0.116 0.044 0.189 0 0.107-0.029 0.196-0.087 0.269s-0.129 0.109-0.211 0.109c-0.053 0-0.102-0.007-0.145-0.022-0.044-0.019-0.095-0.048-0.153-0.087-0.213-0.15-0.412-0.255-0.596-0.313-0.184-0.063-0.393-0.095-0.625-0.095-0.529 0-0.928 0.158-1.2 0.473-0.267 0.31-0.4 0.773-0.4 1.389 0 1.261 0.553 1.891 1.658 1.891 0.33 0 0.659-0.046 0.989-0.138v-1.287h-0.822c-0.116 0-0.209-0.029-0.276-0.087-0.063-0.058-0.095-0.141-0.095-0.247s0.032-0.189 0.095-0.247c0.068-0.058 0.16-0.087 0.276-0.087h1.287zM41.974 11.636c-0.141 0-0.252-0.039-0.335-0.116-0.078-0.078-0.116-0.187-0.116-0.327v-4.24c0-0.141 0.039-0.25 0.116-0.327 0.082-0.078 0.194-0.116 0.335-0.116h2.625c0.141 0 0.25 0.032 0.327 0.095s0.116 0.153 0.116 0.269c0 0.121-0.039 0.216-0.116 0.284-0.078 0.063-0.187 0.095-0.327 0.095h-2.16v1.411h2.015c0.141 0 0.25 0.031 0.327 0.095s0.116 0.155 0.116 0.276c0 0.116-0.039 0.206-0.116 0.269s-0.187 0.095-0.327 0.095h-2.015v1.498h2.16c0.141 0 0.25 0.034 0.327 0.102 0.078 0.063 0.116 0.155 0.116 0.276 0 0.116-0.039 0.206-0.116 0.269s-0.187 0.095-0.327 0.095h-2.625zM47.493 11.673c-0.145 0-0.262-0.041-0.349-0.124-0.082-0.087-0.124-0.201-0.124-0.342v-3.927h-1.324c-0.291 0-0.436-0.128-0.436-0.385s0.145-0.385 0.436-0.385h3.585c0.291 0 0.436 0.128 0.436 0.385s-0.145 0.385-0.436 0.385h-1.324v3.927c0 0.141-0.044 0.255-0.131 0.342-0.082 0.082-0.194 0.124-0.335 0.124zM52.713 11.68c-0.141 0-0.255-0.044-0.342-0.131-0.082-0.087-0.124-0.201-0.124-0.342v-4.269c0-0.141 0.041-0.252 0.124-0.335 0.087-0.087 0.201-0.131 0.342-0.131 0.145 0 0.259 0.044 0.342 0.131 0.087 0.082 0.131 0.194 0.131 0.335v4.269c0 0.141-0.044 0.255-0.131 0.342-0.082 0.087-0.196 0.131-0.342 0.131zM55.973 11.673c-0.145 0-0.262-0.041-0.349-0.124-0.082-0.087-0.124-0.201-0.124-0.342v-3.927h-1.324c-0.291 0-0.436-0.128-0.436-0.385s0.145-0.385 0.436-0.385h3.585c0.291 0 0.436 0.128 0.436 0.385s-0.145 0.385-0.436 0.385h-1.324v3.927c0 0.141-0.044 0.255-0.131 0.342-0.082 0.082-0.194 0.124-0.335 0.124zM63.011 11.702c-0.499 0-0.933-0.107-1.302-0.32-0.364-0.213-0.645-0.519-0.844-0.916s-0.298-0.863-0.298-1.396 0.097-0.996 0.291-1.389c0.199-0.398 0.482-0.703 0.851-0.916s0.802-0.32 1.302-0.32c0.499 0 0.931 0.107 1.295 0.32 0.368 0.213 0.65 0.519 0.844 0.916 0.199 0.393 0.298 0.856 0.298 1.389s-0.099 0.999-0.298 1.396c-0.199 0.398-0.482 0.703-0.851 0.916-0.364 0.213-0.793 0.32-1.287 0.32zM63.011 10.953c0.47 0 0.836-0.162 1.098-0.487 0.267-0.325 0.4-0.79 0.4-1.396s-0.133-1.069-0.4-1.389c-0.262-0.325-0.628-0.487-1.098-0.487-0.475 0-0.846 0.162-1.113 0.487-0.262 0.32-0.393 0.783-0.393 1.389s0.131 1.072 0.393 1.396c0.267 0.325 0.638 0.487 1.113 0.487zM70.279 6.473c0.136 0 0.242 0.044 0.32 0.131 0.082 0.082 0.124 0.194 0.124 0.335v4.269c0 0.141-0.041 0.255-0.124 0.342s-0.189 0.131-0.32 0.131c-0.155 0-0.274-0.056-0.356-0.167l-2.655-3.455v3.149c0 0.141-0.039 0.255-0.116 0.342s-0.184 0.131-0.32 0.131c-0.136 0-0.242-0.044-0.32-0.131s-0.116-0.201-0.116-0.342v-4.269c0-0.141 0.041-0.252 0.124-0.335 0.082-0.087 0.192-0.131 0.327-0.131 0.15 0 0.267 0.056 0.349 0.167l2.647 3.44v-3.142c0-0.141 0.039-0.252 0.116-0.335 0.082-0.087 0.189-0.131 0.32-0.131z"></path>
      <path fill="#ffe000" style="fill: var(--color4, #ffe000)" d="M23.806 19.384l-3.125-3.271v-0.229l3.125-3.271 0.068 0.044 3.697 2.199c1.058 0.624 1.058 1.654 0 2.286l-3.764 2.243z"></path>
      <path fill="#ff3a44" style="fill: var(--color5, #ff3a44)" d="M23.875 19.34l-3.194-3.342-9.426 9.869c0.345 0.386 0.924 0.431 1.571 0.053l11.049-6.58z"></path>
      <path fill="#06e775" style="fill: var(--color6, #06e775)" d="M23.874 12.656l-11.050-6.57c-0.647-0.387-1.228-0.334-1.571 0.053l9.428 9.859 3.193-3.342z"></path>
      <path fill="#000" style="fill: var(--color7, #000)" opacity="0.2" d="M23.806 19.27l-10.973 6.527c-0.613 0.369-1.16 0.343-1.513 0.008l-0.058 0.061 0.058 0.053c0.353 0.334 0.9 0.361 1.513-0.008l11.048-6.57-0.075-0.071z"></path>
      <path fill="#000" style="fill: var(--color7, #000)" opacity="0.12" d="M27.57 17.027l-3.774 2.243 0.068 0.071 3.696-2.199c0.53-0.316 0.79-0.731 0.79-1.143-0.032 0.379-0.302 0.738-0.781 1.028h0.001z"></path>
      <path fill="#fff" style="fill: var(--color3, #fff)" opacity="0.25" d="M12.825 6.201l14.745 8.769c0.478 0.282 0.748 0.652 0.79 1.028 0-0.412-0.26-0.827-0.79-1.143l-14.745-8.768c-1.058-0.634-1.916-0.105-1.916 1.16v0.115c0-1.267 0.858-1.786 1.916-1.161z"></path>
      <path fill="#00d2ff" style="fill: var(--color8, #00d2ff)" d="M11.254 6.129c-0.219 0.247-0.345 0.624-0.345 1.117v17.505c0 0.494 0.127 0.871 0.353 1.108l0.058 0.053 9.369-9.808v-0.219l-9.376-9.81-0.059 0.054z"></path>
    </symbol>

    <symbol id="icon-apple" viewBox="0 0 109 32">
      <path fill="#222" style="fill: var(--color1, #222); stroke: var(--color2, #a6a6a6)" stroke="#a6a6a6" stroke-linejoin="miter" stroke-linecap="butt" stroke-miterlimit="4" stroke-width="0.7273" d="M3.636 0.364h101.818c1.807 0 3.273 1.465 3.273 3.273v24.727c0 1.807-1.465 3.273-3.273 3.273h-101.818c-1.807 0-3.273-1.465-3.273-3.273v-24.727c0-1.807 1.465-3.273 3.273-3.273z"></path>
      <path fill="#fff" style="fill: var(--color3, #fff)" d="M44.996 23.719c0.052 0.113 0.079 0.227 0.079 0.34 0 0.201-0.083 0.371-0.249 0.511-0.157 0.14-0.34 0.209-0.55 0.209-0.14 0-0.271-0.035-0.393-0.105-0.122-0.079-0.218-0.196-0.288-0.353l-0.785-1.754h-4.608l-0.785 1.754c-0.070 0.157-0.166 0.275-0.288 0.353-0.122 0.070-0.257 0.105-0.406 0.105-0.201 0-0.384-0.070-0.55-0.209s-0.249-0.31-0.249-0.511c0-0.113 0.026-0.227 0.079-0.34l3.613-7.763c0.079-0.175 0.196-0.305 0.353-0.393 0.166-0.096 0.34-0.144 0.524-0.144s0.353 0.048 0.511 0.144c0.166 0.087 0.288 0.218 0.367 0.393l3.626 7.763zM38.778 21.258h3.456l-1.728-3.888-1.728 3.888zM49.882 18.169c0.55 0 1.039 0.14 1.466 0.419 0.436 0.279 0.772 0.676 1.008 1.191 0.244 0.506 0.367 1.091 0.367 1.754s-0.122 1.244-0.367 1.741c-0.236 0.497-0.567 0.881-0.995 1.152s-0.921 0.406-1.479 0.406c-0.454 0-0.86-0.096-1.217-0.288s-0.633-0.458-0.825-0.799v2.671c0 0.227-0.074 0.406-0.223 0.537s-0.345 0.196-0.589 0.196c-0.244 0-0.445-0.070-0.602-0.209-0.148-0.14-0.223-0.323-0.223-0.55v-7.423c0-0.236 0.070-0.423 0.209-0.563 0.148-0.14 0.345-0.209 0.589-0.209s0.441 0.070 0.589 0.209c0.148 0.14 0.223 0.327 0.223 0.563v0.327c0.192-0.358 0.467-0.633 0.825-0.825 0.367-0.201 0.781-0.301 1.244-0.301zM49.45 23.562c0.515 0 0.916-0.175 1.204-0.524 0.288-0.358 0.432-0.86 0.432-1.505 0-0.663-0.144-1.178-0.432-1.545s-0.689-0.55-1.204-0.55c-0.524 0-0.929 0.179-1.217 0.537-0.279 0.358-0.419 0.868-0.419 1.532 0 0.655 0.14 1.161 0.419 1.519 0.288 0.358 0.694 0.537 1.217 0.537zM57.744 18.169c0.55 0 1.039 0.14 1.466 0.419 0.436 0.279 0.772 0.676 1.008 1.191 0.244 0.506 0.367 1.091 0.367 1.754s-0.122 1.244-0.367 1.741c-0.236 0.497-0.567 0.881-0.995 1.152s-0.921 0.406-1.479 0.406c-0.454 0-0.86-0.096-1.217-0.288s-0.633-0.458-0.825-0.799v2.671c0 0.227-0.074 0.406-0.223 0.537s-0.345 0.196-0.589 0.196c-0.244 0-0.445-0.070-0.602-0.209-0.148-0.14-0.223-0.323-0.223-0.55v-7.423c0-0.236 0.070-0.423 0.209-0.563 0.148-0.14 0.345-0.209 0.589-0.209s0.441 0.070 0.589 0.209c0.148 0.14 0.223 0.327 0.223 0.563v0.327c0.192-0.358 0.467-0.633 0.825-0.825 0.367-0.201 0.781-0.301 1.244-0.301zM57.312 23.562c0.515 0 0.916-0.175 1.204-0.524 0.288-0.358 0.432-0.86 0.432-1.505 0-0.663-0.144-1.178-0.432-1.545s-0.689-0.55-1.204-0.55c-0.524 0-0.929 0.179-1.217 0.537-0.279 0.358-0.419 0.868-0.419 1.532 0 0.655 0.14 1.161 0.419 1.519 0.288 0.358 0.694 0.537 1.217 0.537zM68.82 24.845c-0.672 0-1.309-0.087-1.911-0.262-0.593-0.183-1.078-0.428-1.453-0.733-0.201-0.148-0.301-0.358-0.301-0.628 0-0.183 0.052-0.34 0.157-0.471 0.113-0.14 0.244-0.209 0.393-0.209 0.157 0 0.336 0.061 0.537 0.183 0.375 0.271 0.768 0.467 1.178 0.589s0.864 0.183 1.361 0.183c0.637 0 1.126-0.109 1.466-0.327 0.34-0.227 0.511-0.554 0.511-0.982 0-0.332-0.161-0.585-0.484-0.759-0.314-0.183-0.842-0.358-1.584-0.524-0.768-0.166-1.392-0.358-1.872-0.576s-0.842-0.497-1.087-0.838c-0.244-0.34-0.367-0.772-0.367-1.296 0-0.541 0.153-1.025 0.458-1.453s0.729-0.759 1.27-0.995c0.55-0.244 1.165-0.367 1.846-0.367 1.248 0 2.265 0.332 3.050 0.995 0.113 0.096 0.192 0.192 0.236 0.288 0.052 0.087 0.079 0.201 0.079 0.34 0 0.183-0.057 0.345-0.17 0.484-0.105 0.131-0.231 0.196-0.38 0.196-0.087 0-0.17-0.013-0.249-0.039-0.070-0.026-0.166-0.074-0.288-0.144-0.358-0.262-0.707-0.454-1.047-0.576-0.332-0.131-0.742-0.196-1.231-0.196-0.593 0-1.065 0.122-1.414 0.367-0.34 0.236-0.511 0.567-0.511 0.995 0 0.358 0.153 0.633 0.458 0.825s0.825 0.371 1.558 0.537c0.777 0.175 1.405 0.371 1.885 0.589 0.489 0.209 0.86 0.48 1.113 0.812 0.262 0.332 0.393 0.746 0.393 1.244 0 0.541-0.153 1.021-0.458 1.44-0.297 0.41-0.72 0.733-1.27 0.969-0.541 0.227-1.165 0.34-1.872 0.34zM77.065 23.588c0.436 0.026 0.655 0.223 0.655 0.589 0 0.209-0.087 0.371-0.262 0.484-0.166 0.105-0.406 0.148-0.72 0.131l-0.353-0.026c-1.466-0.105-2.199-0.89-2.199-2.356v-2.854h-0.655c-0.236 0-0.419-0.052-0.55-0.157-0.122-0.105-0.183-0.257-0.183-0.458s0.061-0.353 0.183-0.458c0.131-0.105 0.314-0.157 0.55-0.157h0.655v-1.204c0-0.236 0.074-0.423 0.223-0.563s0.349-0.209 0.602-0.209c0.244 0 0.441 0.070 0.589 0.209s0.223 0.327 0.223 0.563v1.204h1.113c0.236 0 0.415 0.052 0.537 0.157 0.131 0.105 0.196 0.257 0.196 0.458s-0.065 0.353-0.196 0.458c-0.122 0.105-0.301 0.157-0.537 0.157h-1.113v2.972c0 0.646 0.297 0.991 0.89 1.034l0.353 0.026zM81.492 24.832c-0.655 0-1.231-0.135-1.728-0.406-0.489-0.271-0.868-0.659-1.139-1.165s-0.406-1.095-0.406-1.767c0-0.672 0.135-1.257 0.406-1.754 0.271-0.506 0.65-0.895 1.139-1.165 0.497-0.271 1.073-0.406 1.728-0.406s1.226 0.135 1.715 0.406c0.497 0.271 0.877 0.659 1.139 1.165 0.271 0.497 0.406 1.082 0.406 1.754s-0.135 1.261-0.406 1.767c-0.262 0.506-0.641 0.895-1.139 1.165-0.489 0.271-1.060 0.406-1.715 0.406zM81.479 23.562c0.532 0 0.938-0.175 1.217-0.524s0.419-0.864 0.419-1.545c0-0.672-0.14-1.183-0.419-1.532-0.279-0.358-0.681-0.537-1.204-0.537s-0.929 0.179-1.217 0.537c-0.279 0.349-0.419 0.86-0.419 1.532 0 0.681 0.14 1.196 0.419 1.545s0.681 0.524 1.204 0.524zM89.676 18.195c0.227-0.017 0.406 0.031 0.537 0.144s0.196 0.284 0.196 0.511c0 0.236-0.057 0.41-0.17 0.524s-0.319 0.188-0.615 0.223l-0.393 0.039c-0.515 0.052-0.895 0.227-1.139 0.524-0.236 0.297-0.353 0.668-0.353 1.113v2.749c0 0.253-0.079 0.449-0.236 0.589-0.157 0.131-0.353 0.196-0.589 0.196s-0.432-0.065-0.589-0.196c-0.148-0.14-0.223-0.336-0.223-0.589v-5.066c0-0.244 0.074-0.432 0.223-0.563 0.157-0.131 0.349-0.196 0.576-0.196s0.41 0.065 0.55 0.196c0.14 0.122 0.209 0.301 0.209 0.537v0.524c0.166-0.384 0.41-0.681 0.733-0.89 0.332-0.209 0.698-0.327 1.1-0.353l0.183-0.013zM96.052 22.973c0.148 0 0.266 0.057 0.353 0.17 0.096 0.113 0.144 0.266 0.144 0.458 0 0.271-0.161 0.497-0.484 0.681-0.297 0.166-0.633 0.301-1.008 0.406-0.375 0.096-0.733 0.144-1.073 0.144-1.030 0-1.846-0.297-2.448-0.89s-0.903-1.405-0.903-2.435c0-0.655 0.131-1.235 0.393-1.741s0.628-0.899 1.1-1.178c0.48-0.279 1.021-0.419 1.623-0.419 0.576 0 1.078 0.127 1.505 0.38s0.759 0.611 0.995 1.073c0.236 0.463 0.353 1.008 0.353 1.636 0 0.375-0.166 0.563-0.497 0.563h-3.862c0.052 0.602 0.223 1.047 0.511 1.335 0.288 0.279 0.707 0.419 1.257 0.419 0.279 0 0.524-0.035 0.733-0.105 0.218-0.070 0.463-0.166 0.733-0.288 0.262-0.14 0.454-0.209 0.576-0.209zM93.788 19.321c-0.445 0-0.803 0.14-1.073 0.419-0.262 0.279-0.419 0.681-0.471 1.204h2.959c-0.017-0.532-0.148-0.934-0.393-1.204-0.244-0.279-0.585-0.419-1.021-0.419z"></path>
      <path fill="#fff" style="fill: var(--color3, #fff)" d="M36.64 11.636c-0.141 0-0.252-0.039-0.335-0.116-0.078-0.078-0.116-0.187-0.116-0.327v-4.24c0-0.141 0.039-0.25 0.116-0.327 0.082-0.078 0.194-0.116 0.335-0.116h1.44c0.839 0 1.489 0.225 1.949 0.676 0.465 0.446 0.698 1.074 0.698 1.884 0 0.815-0.233 1.447-0.698 1.898-0.461 0.446-1.11 0.669-1.949 0.669h-1.44zM38.022 10.873c1.178 0 1.767-0.601 1.767-1.804 0-1.198-0.589-1.796-1.767-1.796h-0.895v3.6h0.895zM43.214 11.695c-0.364 0-0.684-0.075-0.96-0.225-0.272-0.15-0.482-0.366-0.633-0.647s-0.225-0.608-0.225-0.982 0.075-0.698 0.225-0.975c0.15-0.281 0.361-0.497 0.633-0.647 0.276-0.15 0.596-0.225 0.96-0.225s0.681 0.075 0.953 0.225c0.276 0.15 0.487 0.366 0.633 0.647 0.15 0.276 0.225 0.601 0.225 0.975s-0.075 0.701-0.225 0.982c-0.145 0.281-0.356 0.497-0.633 0.647-0.272 0.15-0.589 0.225-0.953 0.225zM43.207 10.989c0.296 0 0.521-0.097 0.676-0.291s0.233-0.48 0.233-0.858c0-0.373-0.078-0.657-0.233-0.851-0.155-0.199-0.378-0.298-0.669-0.298s-0.516 0.099-0.676 0.298c-0.155 0.194-0.233 0.478-0.233 0.851 0 0.378 0.078 0.664 0.233 0.858s0.378 0.291 0.669 0.291zM50.526 8.276c0.034-0.087 0.082-0.153 0.145-0.196 0.068-0.044 0.141-0.065 0.218-0.065 0.111 0 0.211 0.039 0.298 0.116 0.092 0.073 0.138 0.165 0.138 0.276 0 0.063-0.012 0.119-0.036 0.167l-1.2 2.815c-0.039 0.092-0.099 0.162-0.182 0.211-0.078 0.049-0.165 0.073-0.262 0.073-0.092 0-0.179-0.024-0.262-0.073-0.078-0.049-0.136-0.119-0.175-0.211l-0.865-2.080-0.836 2.080c-0.039 0.092-0.099 0.162-0.182 0.211-0.078 0.049-0.165 0.073-0.262 0.073-0.092 0-0.179-0.024-0.262-0.073s-0.143-0.119-0.182-0.211l-1.193-2.815c-0.024-0.063-0.036-0.116-0.036-0.16 0-0.111 0.048-0.206 0.145-0.284 0.097-0.082 0.204-0.124 0.32-0.124 0.082 0 0.158 0.022 0.225 0.065s0.119 0.109 0.153 0.196l0.858 2.218 0.88-2.196c0.039-0.092 0.095-0.16 0.167-0.204 0.073-0.049 0.153-0.073 0.24-0.073s0.167 0.024 0.24 0.073c0.073 0.044 0.129 0.111 0.167 0.204l0.887 2.204 0.851-2.218zM54.013 7.993c0.427 0 0.744 0.121 0.953 0.364s0.313 0.608 0.313 1.098v1.789c0 0.136-0.041 0.242-0.124 0.32-0.078 0.078-0.187 0.116-0.327 0.116s-0.252-0.039-0.335-0.116c-0.082-0.078-0.124-0.184-0.124-0.32v-1.738c0-0.276-0.053-0.478-0.16-0.604-0.102-0.126-0.264-0.189-0.487-0.189-0.262 0-0.473 0.082-0.633 0.247-0.155 0.165-0.233 0.385-0.233 0.662v1.622c0 0.136-0.041 0.242-0.124 0.32s-0.194 0.116-0.335 0.116c-0.141 0-0.252-0.039-0.335-0.116-0.078-0.078-0.116-0.184-0.116-0.32v-2.815c0-0.126 0.041-0.228 0.124-0.305s0.194-0.116 0.335-0.116c0.126 0 0.228 0.039 0.305 0.116 0.082 0.073 0.124 0.17 0.124 0.291v0.196c0.121-0.199 0.284-0.351 0.487-0.458s0.434-0.16 0.691-0.16zM56.652 11.68c-0.131 0-0.24-0.036-0.327-0.109-0.082-0.078-0.124-0.187-0.124-0.327v-4.342c0-0.141 0.041-0.247 0.124-0.32 0.087-0.073 0.196-0.109 0.327-0.109s0.24 0.036 0.327 0.109c0.087 0.073 0.131 0.179 0.131 0.32v4.342c0 0.141-0.044 0.25-0.131 0.327-0.087 0.073-0.196 0.109-0.327 0.109zM59.67 11.695c-0.364 0-0.684-0.075-0.96-0.225-0.272-0.15-0.482-0.366-0.633-0.647s-0.225-0.608-0.225-0.982c0-0.373 0.075-0.698 0.225-0.975 0.15-0.281 0.361-0.497 0.633-0.647 0.276-0.15 0.596-0.225 0.96-0.225s0.681 0.075 0.953 0.225c0.276 0.15 0.487 0.366 0.633 0.647 0.15 0.276 0.225 0.601 0.225 0.975s-0.075 0.701-0.225 0.982c-0.145 0.281-0.356 0.497-0.633 0.647-0.272 0.15-0.589 0.225-0.953 0.225zM59.663 10.989c0.296 0 0.521-0.097 0.676-0.291s0.233-0.48 0.233-0.858c0-0.373-0.078-0.657-0.233-0.851-0.155-0.199-0.378-0.298-0.669-0.298s-0.516 0.099-0.676 0.298c-0.155 0.194-0.233 0.478-0.233 0.851 0 0.378 0.078 0.664 0.233 0.858s0.378 0.291 0.669 0.291zM63.773 7.993c0.495 0 0.861 0.124 1.098 0.371 0.242 0.242 0.364 0.613 0.364 1.113v1.775c0 0.131-0.039 0.235-0.116 0.313-0.078 0.073-0.184 0.109-0.32 0.109-0.126 0-0.23-0.039-0.313-0.116-0.078-0.078-0.116-0.179-0.116-0.305v-0.16c-0.082 0.189-0.213 0.337-0.393 0.444-0.175 0.107-0.378 0.16-0.611 0.16-0.238 0-0.453-0.049-0.647-0.145s-0.347-0.23-0.458-0.4c-0.112-0.17-0.167-0.359-0.167-0.567 0-0.262 0.065-0.468 0.196-0.618 0.136-0.15 0.354-0.259 0.655-0.327s0.715-0.102 1.244-0.102h0.182v-0.167c0-0.238-0.051-0.41-0.153-0.516-0.102-0.111-0.267-0.167-0.495-0.167-0.141 0-0.284 0.022-0.429 0.065-0.145 0.039-0.318 0.097-0.516 0.175-0.126 0.063-0.218 0.095-0.276 0.095-0.087 0-0.16-0.031-0.218-0.095-0.053-0.063-0.080-0.145-0.080-0.247 0-0.082 0.019-0.153 0.058-0.211 0.044-0.063 0.114-0.121 0.211-0.175 0.17-0.092 0.371-0.165 0.604-0.218 0.238-0.053 0.47-0.080 0.698-0.080zM63.548 11.040c0.242 0 0.439-0.080 0.589-0.24 0.155-0.165 0.233-0.376 0.233-0.633v-0.153h-0.131c-0.325 0-0.577 0.015-0.756 0.044s-0.308 0.080-0.385 0.153c-0.078 0.073-0.116 0.172-0.116 0.298 0 0.155 0.053 0.284 0.16 0.385 0.111 0.097 0.247 0.145 0.407 0.145zM69.126 6.473c0.136 0 0.247 0.039 0.335 0.116s0.131 0.179 0.131 0.305v4.349c0 0.131-0.041 0.235-0.124 0.313s-0.192 0.116-0.327 0.116c-0.136 0-0.245-0.039-0.327-0.116s-0.124-0.182-0.124-0.313v-0.182c-0.107 0.199-0.262 0.354-0.465 0.465-0.199 0.111-0.427 0.167-0.684 0.167-0.305 0-0.579-0.078-0.822-0.233-0.238-0.155-0.424-0.373-0.56-0.655-0.131-0.286-0.196-0.613-0.196-0.982s0.065-0.691 0.196-0.967c0.136-0.276 0.322-0.49 0.56-0.64s0.511-0.225 0.822-0.225c0.257 0 0.485 0.053 0.684 0.16s0.352 0.257 0.458 0.451v-1.724c0-0.121 0.039-0.218 0.116-0.291 0.082-0.078 0.192-0.116 0.327-0.116zM67.781 10.989c0.291 0 0.514-0.099 0.669-0.298 0.16-0.199 0.24-0.482 0.24-0.851s-0.080-0.65-0.24-0.844c-0.155-0.199-0.376-0.298-0.662-0.298-0.291 0-0.516 0.097-0.676 0.291s-0.24 0.473-0.24 0.836c0 0.368 0.080 0.655 0.24 0.858s0.383 0.305 0.669 0.305zM74.123 11.695c-0.364 0-0.684-0.075-0.96-0.225-0.271-0.15-0.482-0.366-0.633-0.647s-0.225-0.608-0.225-0.982 0.075-0.698 0.225-0.975c0.15-0.281 0.361-0.497 0.633-0.647 0.276-0.15 0.596-0.225 0.96-0.225s0.681 0.075 0.953 0.225c0.276 0.15 0.487 0.366 0.633 0.647 0.151 0.276 0.225 0.601 0.225 0.975s-0.075 0.701-0.225 0.982c-0.145 0.281-0.356 0.497-0.633 0.647-0.271 0.15-0.589 0.225-0.953 0.225zM74.116 10.989c0.296 0 0.521-0.097 0.676-0.291s0.233-0.48 0.233-0.858c0-0.373-0.078-0.657-0.233-0.851-0.155-0.199-0.378-0.298-0.669-0.298s-0.516 0.099-0.676 0.298c-0.155 0.194-0.233 0.478-0.233 0.851 0 0.378 0.078 0.664 0.233 0.858s0.378 0.291 0.669 0.291zM78.75 7.993c0.427 0 0.744 0.121 0.953 0.364s0.313 0.608 0.313 1.098v1.789c0 0.136-0.041 0.242-0.124 0.32-0.078 0.078-0.187 0.116-0.327 0.116s-0.252-0.039-0.335-0.116c-0.082-0.078-0.124-0.184-0.124-0.32v-1.738c0-0.276-0.053-0.478-0.16-0.604-0.102-0.126-0.264-0.189-0.487-0.189-0.262 0-0.473 0.082-0.633 0.247-0.155 0.165-0.233 0.385-0.233 0.662v1.622c0 0.136-0.041 0.242-0.124 0.32s-0.194 0.116-0.335 0.116c-0.14 0-0.252-0.039-0.335-0.116-0.078-0.078-0.116-0.184-0.116-0.32v-2.815c0-0.126 0.041-0.228 0.124-0.305s0.194-0.116 0.335-0.116c0.126 0 0.228 0.039 0.305 0.116 0.082 0.073 0.124 0.17 0.124 0.291v0.196c0.121-0.199 0.284-0.351 0.487-0.458s0.434-0.16 0.691-0.16zM84.76 11.004c0.243 0.015 0.364 0.124 0.364 0.327 0 0.116-0.048 0.206-0.145 0.269-0.092 0.058-0.225 0.082-0.4 0.073l-0.196-0.015c-0.815-0.058-1.222-0.495-1.222-1.309v-1.585h-0.364c-0.131 0-0.233-0.029-0.305-0.087-0.068-0.058-0.102-0.143-0.102-0.255s0.034-0.196 0.102-0.255c0.073-0.058 0.175-0.087 0.305-0.087h0.364v-0.669c0-0.131 0.041-0.235 0.124-0.313s0.194-0.116 0.335-0.116c0.136 0 0.245 0.039 0.327 0.116s0.124 0.182 0.124 0.313v0.669h0.618c0.131 0 0.231 0.029 0.298 0.087 0.073 0.058 0.109 0.143 0.109 0.255s-0.036 0.196-0.109 0.255c-0.068 0.058-0.167 0.087-0.298 0.087h-0.618v1.651c0 0.359 0.165 0.55 0.495 0.575l0.196 0.015zM87.678 7.993c0.834 0 1.251 0.487 1.251 1.462v1.789c0 0.136-0.041 0.242-0.124 0.32-0.078 0.078-0.187 0.116-0.327 0.116s-0.252-0.039-0.335-0.116c-0.082-0.078-0.124-0.184-0.124-0.32v-1.789c0-0.257-0.053-0.444-0.16-0.56-0.102-0.121-0.264-0.182-0.487-0.182-0.262 0-0.473 0.082-0.633 0.247-0.155 0.165-0.233 0.385-0.233 0.662v1.622c0 0.136-0.041 0.242-0.124 0.32s-0.194 0.116-0.335 0.116c-0.14 0-0.252-0.039-0.335-0.116-0.078-0.078-0.116-0.184-0.116-0.32v-4.349c0-0.126 0.041-0.228 0.124-0.305 0.087-0.078 0.199-0.116 0.335-0.116s0.245 0.036 0.327 0.109c0.082 0.073 0.124 0.172 0.124 0.298v1.695c0.121-0.189 0.281-0.332 0.48-0.429 0.204-0.102 0.434-0.153 0.691-0.153zM92.666 10.662c0.083 0 0.148 0.031 0.196 0.095 0.054 0.063 0.080 0.148 0.080 0.255 0 0.15-0.089 0.276-0.269 0.378-0.164 0.092-0.351 0.167-0.56 0.225-0.208 0.053-0.407 0.080-0.596 0.080-0.572 0-1.025-0.165-1.36-0.495s-0.502-0.781-0.502-1.353c0-0.364 0.073-0.686 0.218-0.967s0.349-0.499 0.611-0.655c0.267-0.155 0.567-0.233 0.902-0.233 0.32 0 0.599 0.070 0.836 0.211s0.422 0.339 0.553 0.596 0.196 0.56 0.196 0.909c0 0.209-0.092 0.313-0.276 0.313h-2.145c0.029 0.335 0.124 0.582 0.284 0.742 0.16 0.155 0.393 0.233 0.698 0.233 0.156 0 0.291-0.019 0.407-0.058 0.121-0.039 0.257-0.092 0.407-0.16 0.145-0.078 0.252-0.116 0.32-0.116zM91.408 8.633c-0.247 0-0.446 0.078-0.596 0.233-0.145 0.155-0.233 0.378-0.262 0.669h1.644c-0.009-0.296-0.082-0.519-0.218-0.669-0.135-0.155-0.324-0.233-0.567-0.233z"></path>
      <path fill="#fff" style="fill: var(--color3, #fff)" d="M25.488 16.648c-0.024-2.573 2.219-3.824 2.321-3.882-1.271-1.759-3.24-1.999-3.932-2.018-1.654-0.165-3.259 0.939-4.101 0.939-0.86 0-2.157-0.923-3.556-0.896-1.8 0.027-3.483 1.015-4.406 2.551-1.906 3.132-0.485 7.733 1.341 10.264 0.913 1.239 1.981 2.624 3.378 2.575 1.366-0.054 1.877-0.827 3.526-0.827 1.634 0 2.113 0.827 3.538 0.796 1.467-0.022 2.39-1.245 3.271-2.496 1.056-1.421 1.479-2.82 1.496-2.892-0.034-0.011-2.848-1.030-2.877-4.114h0.001zM22.796 9.082c0.735-0.873 1.238-2.059 1.098-3.264-1.063 0.045-2.394 0.699-3.16 1.552-0.678 0.753-1.283 1.985-1.128 3.144 1.195 0.084 2.422-0.572 3.189-1.431h0.001z"></path>
    </symbol>

  </defs>
</svg>
