<svg width="130" height="33" viewBox="0 0 130 33"  xmlns="http://www.w3.org/2000/svg">
<path fill-rule="evenodd" clip-rule="evenodd" d="M74.491 7.32226C76.0858 7.32226 77.0685 8.18136 77.6168 8.90426L77.773 9.11275L77.8669 8.83407C78.1157 8.1185 78.6112 7.72666 79.2547 7.72666H80.8337L80.82 24.3891C80.82 30.7412 77.4454 33 74.5547 33C73.1512 33 71.5976 32.4217 70.4051 31.4567L70.168 31.265L70.549 29.7773L70.8184 28.761C71.111 27.6589 71.5318 27.3854 72.2528 27.7165C72.8044 28.0214 73.6289 28.3587 74.5349 28.3587C76.3989 28.3587 77.429 27.0187 77.429 24.5944V24.0894L77.1665 24.3891C76.488 25.1717 75.6355 25.5551 74.5547 25.5551C71.3906 25.5551 69.1805 21.7782 69.1805 16.3711C69.1805 10.9598 71.3173 7.32226 74.491 7.32226ZM93.1386 7.42179C94.8896 7.42179 97.4952 8.55643 97.4952 11.6806V14.0484L95.7189 14.0442C95.5701 14.0442 94.8142 13.9772 94.5641 12.7063L94.549 12.6131C94.4394 12.0526 93.7472 11.7183 93.1386 11.7183C91.2622 11.7183 89.9519 13.8305 89.9519 16.8478C89.9519 20.3439 91.6412 21.9123 93.3161 21.9123C95.0411 21.9123 96.3747 19.9312 96.5385 19.6755L96.5549 19.6493L96.74 19.3486L98.1469 22.9076L98.0537 23.0836C98.0373 23.114 96.2877 26.3419 93.0694 26.3419C89.3604 26.3419 86.6719 22.367 86.6719 16.8845C86.6719 11.4051 89.3892 7.42179 93.1386 7.42179ZM18.564 7.40398C22.1777 7.40398 24.8004 11.3611 24.8004 16.8122C24.8004 22.2623 22.1777 26.2204 18.564 26.2204C14.9633 26.2204 12.3509 22.2623 12.3509 16.8122C12.3509 11.3611 14.9633 7.40398 18.564 7.40398ZM31.8955 7.40398C35.5051 7.40398 38.1333 11.3611 38.1333 16.8122C38.1333 22.2623 35.5051 26.2204 31.8955 26.2204C28.2914 26.2204 25.679 22.2623 25.679 16.8122C25.679 11.3611 28.2921 7.40398 31.8955 7.40398ZM104.649 7.40398C108.258 7.40398 110.886 11.3611 110.886 16.8122C110.886 22.2623 108.258 26.2204 104.649 26.2204C101.046 26.2204 98.4334 22.2623 98.4334 16.8122C98.4334 11.3611 101.046 7.40398 104.649 7.40398ZM53.0089 7.77486C54.2123 7.77486 54.7949 8.67587 54.7949 10.5324L54.788 25.9312H54.7812V25.9375H53.9862L53.1864 25.9417C53.1652 25.9417 53.1467 25.9375 53.1247 25.9375H51.408V21.8201H51.4094L51.3998 7.77486H53.0089ZM40.9589 0.787842C41.8978 0.787842 42.7682 1.07805 42.7682 3.21009V13.8671H43.313C43.7215 13.8671 43.9942 13.7131 44.1285 13.4114L46.5162 7.77486H50.3732L47.1953 14.9808C47.0329 15.3465 46.8637 15.6618 46.6992 15.9269L46.584 16.0945L46.6937 16.2705C46.8637 16.5408 47.0247 16.8824 47.1645 17.2836L48.4584 21.0197L50.4081 25.9438H47.7882C46.8013 25.9438 46.2777 25.6903 45.75 24.2183L43.8654 18.7881C43.7434 18.4665 43.4782 18.3973 43.0889 18.3973H42.7682V25.9428H39.3518L39.3477 0.788889H40.9582L40.9589 0.787842ZM63.7548 7.36207C66.5331 7.36207 68.001 9.78955 68.001 14.3816L68.0065 25.9365H66.3905C65.1569 25.9365 64.5861 25.0543 64.5861 23.1737V15.2616C64.5861 13.0562 64.1728 12.2024 63.1126 12.2024C61.7961 12.2024 60.7414 13.4219 60.3645 15.3842C60.2219 16.0317 60.1527 16.742 60.1527 17.5623V25.9365H56.759L56.7494 7.76752H58.2804C59.207 7.76752 59.8224 8.35527 60.004 9.42286L60.078 9.85661L60.2857 9.53811C60.9066 8.54281 62.0161 7.36207 63.7548 7.36207ZM126.047 7.42074L126.206 7.42493C128.722 7.51922 130 9.85975 130 14.3805L129.997 25.9312H128.471C127.273 25.9312 126.74 25.1161 126.74 23.2869V15.205C126.74 12.8886 126.37 12.0253 125.373 12.0253C123.993 12.0253 123.104 13.9143 122.842 15.7593C122.714 16.413 122.66 17.0689 122.66 17.9437V25.9312H119.395V15.205C119.395 13.1956 118.965 12.1563 118.084 12.0285C116.655 11.821 115.803 13.8965 115.494 15.8274C115.38 16.5513 115.322 17.2459 115.322 17.9437V25.9312H112.082L112.095 7.83562H113.521C114.411 7.83562 114.999 8.3888 115.177 9.39667L115.302 10.0955L115.623 9.56325C116.115 8.76701 117.172 7.42179 118.75 7.42179C120.255 7.42179 121.337 8.31022 121.965 10.0588L122.158 10.591L122.404 10.1154C123.278 8.42861 124.64 7.42283 126.048 7.42283L126.047 7.42074ZM2.07447 0.798319H5.62443C8.73579 0.798319 10.7452 3.35153 10.7452 7.30445C10.7452 9.88804 9.89536 11.3831 9.38822 12.0484L8.95235 12.6173L9.45195 13.0468C10.6643 14.0872 11.3846 16.1343 11.3846 18.5314C11.3846 22.9778 9.15384 25.8506 5.69502 25.8506L1.63586 25.8516L1.62901 25.8506H0V3.40915C0.00890918 1.99373 0.748371 0.84756 1.67081 0.798319H2.07447ZM18.564 11.8063C16.8616 11.8063 15.6802 13.8671 15.6802 16.8132C15.6802 19.7572 16.8616 21.8212 18.564 21.8212C20.2999 21.8212 21.4711 19.8054 21.4711 16.8132C21.4711 13.8671 20.2759 11.8053 18.564 11.8053V11.8063ZM31.8955 11.8063C30.1939 11.8063 29.0097 13.8671 29.0097 16.8132C29.0097 19.7572 30.1939 21.8212 31.8949 21.8212C33.6315 21.8212 34.8027 19.8054 34.8027 16.8132C34.8027 13.8671 33.6034 11.8053 31.8955 11.8053V11.8063ZM104.649 11.8063C102.948 11.8063 101.762 13.8671 101.762 16.8132C101.762 19.7572 102.948 21.8212 104.649 21.8212C106.385 21.8212 107.558 19.8054 107.558 16.8132C107.558 13.8671 106.357 11.8053 104.649 11.8053L104.649 11.8063ZM5.92186 14.8006H4.03928C3.43415 14.9305 3.16002 15.489 3.16002 16.567V21.6074L5.92255 21.6127C7.28976 21.6116 8.13751 20.3377 8.13751 18.1899C8.13751 16.0945 7.26646 14.8006 5.92186 14.8006ZM74.9776 11.8902C72.8099 11.8902 72.6406 15.2166 72.6406 16.236C72.6406 18.5493 73.3013 21.0197 75.1558 21.0197C76.2215 21.0197 77.492 20.2203 77.492 16.4067C77.492 12.3637 76.0563 11.8912 74.9776 11.8912V11.8902ZM5.6025 4.90525H4.18868C3.4828 4.97649 3.16002 5.52757 3.16002 6.68945V10.9252H5.64636C7.04373 10.9252 7.54128 9.27724 7.54128 7.86496C7.54128 6.0137 6.81552 4.90525 5.6025 4.90525Z" />
<path d="M86.5 24C86.5 25.1046 85.6046 26 84.5 26C83.3954 26 82.5 25.1046 82.5 24C82.5 22.8954 83.3954 22 84.5 22C85.6046 22 86.5 22.8954 86.5 24Z" />
<path d="M54.9 4C54.9 5.10457 54.0046 6 52.9 6C51.7955 6 50.9 5.10457 50.9 4C50.9 2.89543 51.7955 2 52.9 2C54.0046 2 54.9 2.89543 54.9 4Z" />
</svg>
