<svg width="130" height="33" viewBox="0 0 130 33" fill="none" xmlns="http://www.w3.org/2000/svg">
<path fill-rule="evenodd" clip-rule="evenodd" d="M47.4051 14.5202C47.5349 12.3287 49.9852 10.6312 52.8759 10.7304L52.9539 10.7333C55.5233 10.6142 57.7334 12.0963 57.8902 14.0431C57.9033 14.2019 57.9018 14.3613 57.8863 14.5202H47.4051ZM52.9454 7.29688C46.0084 7.29688 42.971 10.8227 42.0007 13.8054C41.7342 14.6095 41.6006 15.4358 41.6021 16.2656C41.565 18.2299 42.3453 20.1534 43.8323 21.7627C46.0849 23.9583 49.548 25.2436 53.2174 25.2465C56.9624 25.3499 59.4645 24.8687 61.378 24.0448C61.7604 23.8567 61.9419 23.5058 61.8315 23.1718V20.8828C61.8315 20.4162 61.4599 20.196 60.9245 20.4775C58.6843 21.5654 56.0277 22.05 53.3804 21.8521C50.261 21.8211 47.6623 20.0314 47.324 17.681H62.7376C63.0852 17.681 63.3679 17.4696 63.3734 17.2063C63.6445 14.011 62.4201 7.29688 52.9454 7.29688ZM15.5876 22.1131H8.81435C7.94529 22.0944 7.10637 21.8708 6.41189 21.4737C5.68729 21.0883 5.26242 20.4553 5.27864 19.7838C5.27864 18.8553 6.10367 17.0007 10.2288 17.0007H15.5884L15.5876 22.1131ZM20.6204 14.4927C20.6204 12.1494 19.9321 10.369 18.4435 9.1392C16.9572 7.90943 13.9646 7.29746 11.1898 7.29746C8.4057 7.28929 5.66721 7.84169 3.25625 8.89861C3.1033 8.96752 3.00905 9.09307 3.01214 9.22854L3.22071 11.8125C3.27788 12.063 3.59306 12.2306 3.92369 12.1862C4.03261 12.1722 4.13458 12.1354 4.21723 12.0805C7.61776 10.4933 11.6981 10.1973 13.7745 10.9944C14.9387 11.5024 15.6363 12.4577 15.5884 13.4761V13.8533H9.92056C7.4818 13.8533 0.0102255 14.5406 0.0102255 19.7423V19.7978C-0.107194 21.403 0.79199 22.9551 2.43122 23.9753C4.19715 24.9183 6.33233 25.3808 8.48759 25.288H19.9591C20.3292 25.288 20.6297 25.0602 20.6297 24.7799V14.4717L20.6204 14.4927ZM77.5811 21.8112C74.7793 21.8112 72.7569 20.2579 71.9048 18.3269C71.3022 16.9902 71.3022 15.5403 71.9048 14.2037C72.7569 12.2726 74.7793 10.7199 77.5811 10.7199C83.846 10.7199 84.0546 15.5643 84.0546 16.2656C84.0546 16.9663 83.846 21.8112 77.5811 21.8112ZM89.1963 16.272C89.2458 14.3065 88.464 12.38 86.9661 10.7748C82.9445 6.84666 75.483 6.13251 70.2995 9.18066C69.5131 9.64313 68.8071 10.1786 68.196 10.7748C65.1795 14.0834 65.1795 18.4612 68.196 21.7698C70.4123 23.9992 73.8986 25.2932 77.5819 25.2541C79.9588 25.2599 82.2863 24.7286 84.2639 23.7283V25.8999C84.2639 28.8477 80.8634 29.3837 78.6865 29.4865C77.1894 29.5244 75.6908 29.4625 74.2076 29.3014C73.6097 29.2325 73.1925 29.3014 73.1925 29.789V32.4003C73.208 32.6473 73.483 32.8383 73.8082 32.8266C78.8588 33.1565 82.2601 33.0876 84.817 31.9816C86.6077 31.1787 87.9379 29.8964 88.5436 28.3875C88.9955 27.2231 89.2125 26.0138 89.187 24.8004V16.272H89.1963ZM105.89 8.30709V10.369C105.941 10.6627 105.669 10.9325 105.282 10.9722C105.182 10.9821 105.079 10.9757 104.982 10.9535C100.575 10.2662 97.8645 11.7506 97.8645 14.8367V24.8004C97.8645 25.0807 97.5632 25.3084 97.194 25.3084H93.2944C92.9236 25.3084 92.6239 25.0807 92.6239 24.8004V14.6229C92.5768 12.6761 93.6204 10.8052 95.4976 9.47613C97.4041 8.06359 99.968 7.27819 102.634 7.29045C103.547 7.2922 104.457 7.35644 105.354 7.48315C105.817 7.59994 105.889 7.80607 105.889 8.3357V8.30767L105.89 8.30709ZM29.433 24.801C29.433 25.0813 29.1317 25.309 28.7617 25.309H24.8629C24.4921 25.309 24.1916 25.0813 24.1916 24.801V0.509193C24.1916 0.230655 24.4867 0.00350362 24.8537 0H28.7524C29.1232 0 29.4245 0.227735 29.4245 0.509193V24.801H29.433ZM38.5909 24.801C38.5909 25.0813 38.2897 25.309 37.9204 25.309H34.0209C33.6501 25.309 33.3496 25.0813 33.3496 24.801V0.509193C33.3496 0.227735 33.6508 0 34.0209 0H37.9204C38.2904 0 38.5909 0.227735 38.5909 0.509193V24.801ZM124.051 18.3415C123.198 20.2725 121.175 21.7768 118.374 21.8252C115.572 21.8737 113.55 20.272 112.706 18.3415C112.104 17.0042 112.104 15.5543 112.706 14.2183C113.559 12.2872 115.581 10.7818 118.374 10.7339C121.167 10.686 123.198 12.2872 124.051 14.2183C124.65 15.5526 124.65 17.0002 124.051 18.3345V18.3415ZM127.768 10.7818C123.746 6.85425 116.285 6.14068 111.101 9.18766C110.316 9.65073 109.609 10.1862 108.998 10.7818C107.51 12.3917 106.73 14.3146 106.767 16.2796C106.73 18.2445 107.51 20.168 108.998 21.7768C113.02 25.7049 120.482 26.4191 125.664 23.3709C126.451 22.909 127.158 22.3735 127.768 21.7768C129.255 20.168 130.036 18.2439 129.999 16.2796C130.036 14.3152 129.255 12.3917 127.768 10.7818Z" fill="black"/>
</svg>
