<svg width="130" height="33" viewBox="0 0 130 33"  xmlns="http://www.w3.org/2000/svg">
<path fill-rule="evenodd" clip-rule="evenodd" d="M11.89 7.84403V0.631226H26.7263L30.7774 19.9261L34.8801 0.631226H39.405L32.8291 31.7378H28.778L23.6749 7.84403H19.8341V31.7378H15.4681V7.84403H11.89Z" fill="black"/>
<path fill-rule="evenodd" clip-rule="evenodd" d="M4.57711 14.877V6.8532C9.4705 6.31139 9.3653 15.3271 4.57711 14.877ZM8.52372 31.7378H13.5216L9.31236 19.2961C14.5207 16.2297 13.1002 0.450196 7.31361 0.631183H0V31.7378H4.57711V20.1975L8.52372 31.7378ZM91.1731 0.630021H96.3291L101.222 31.7378H97.5908L96.7492 26.2385H90.6478L89.8048 31.7378H86.2804L91.1737 0.631183L91.1731 0.630021ZM95.8554 20.5572H91.5416L93.6985 6.7627L95.8554 20.5572Z" fill="black"/>
<path fill-rule="evenodd" clip-rule="evenodd" d="M107.956 20.9179V14.2469H116.005V25.0656C114.743 27.8616 113.901 30.0253 112.217 31.3781C111.112 32.2784 109.323 33 107.692 33C105.694 33 104.062 32.3689 102.799 31.1078C101.537 29.7538 100.749 28.0414 100.064 25.5157C99.3804 22.9018 99.2223 19.926 99.2223 16.5893C99.2223 13.074 99.4856 9.91833 100.274 7.39379C101.011 4.77876 102.116 2.88535 103.589 1.53143C104.746 0.450147 105.956 0 107.903 0C109.796 0 111.165 0.270321 112.112 0.901456C113.059 1.53143 113.795 2.52454 114.426 3.8773C115.005 5.23006 115.478 6.94248 115.795 9.01687L111.375 10.7293C111.165 9.46702 110.849 8.56557 110.323 7.93327C109.849 7.30446 109.218 6.85315 108.482 6.67216C106.957 6.31135 105.747 7.75345 105.062 9.1967C104.378 10.7281 104.062 13.0728 104.062 16.4107C104.062 19.8367 104.378 22.8113 105.062 24.3439C105.747 25.7884 106.746 26.5993 107.956 26.5993C108.535 26.5993 109.113 26.4183 109.639 26.0564C110.165 25.7884 110.744 25.2466 111.428 24.4344V20.9191H107.956V20.9179ZM122.476 7.66411H120.108V24.7952H122.476C126.895 24.7952 127 7.66411 122.476 7.66411ZM121.792 0.631136H116.005V31.8282H121.792C132.63 31.8282 132.841 0.631136 121.792 0.631136Z" fill="black"/>
<path fill-rule="evenodd" clip-rule="evenodd" d="M34.8808 31.7376H89.3317V0.629883H34.8794V31.7376H34.8808ZM35.9327 30.1134H88.332V2.34462H35.9334V30.1157L35.9327 30.1134Z" fill="black"/>
<path fill-rule="evenodd" clip-rule="evenodd" d="M47.928 24.1652H38.7738V8.11419H47.6654V11.2699H41.247V14.516H47.191V16.7703H41.247V21.4597H47.928V24.1652ZM72.7594 24.1652H69.9707L69.9191 19.8366C69.9191 17.5824 68.2882 17.6717 67.2355 17.6717H65.4994V24.1652H62.6062V8.11303H69.1298C73.3913 8.11303 74.391 14.0647 71.2337 16.2296C72.023 16.6786 72.7065 18.0325 72.7065 19.7449L72.7594 24.164V24.1652ZM65.3942 15.2365H68.1301C68.8671 15.2365 69.4454 15.0555 69.7616 14.7852C70.0765 14.4255 70.2869 13.8837 70.2869 13.1621C70.2869 11.8105 69.6028 11.0889 68.2882 11.0889H65.3942V15.2365ZM80.2828 7.84387C81.1243 7.84387 81.9137 8.02486 82.5978 8.47501C83.3342 8.83698 83.9654 9.37646 84.4913 10.0993C85.018 10.8186 85.3865 11.7212 85.7015 12.7131C85.9648 13.7944 86.1222 14.8768 86.1222 16.1403C86.1222 17.3121 86.0177 18.4838 85.7015 19.4758C85.4388 20.4689 85.018 21.3692 84.4913 22.0908C83.9654 22.8113 83.3342 23.4424 82.6507 23.8044C81.9137 24.164 81.125 24.4344 80.2828 24.4344C79.4412 24.4344 78.5996 24.1652 77.9155 23.8044C77.1791 23.4424 76.5479 22.8113 76.0749 22.0908C75.5482 21.3692 75.1267 20.5571 74.8647 19.4758C74.5485 18.4838 74.3903 17.4014 74.3903 16.1403C74.3903 14.8768 74.5485 13.7039 74.8647 12.7131C75.1267 11.7212 75.5482 10.8197 76.0749 10.0993C76.6008 9.37646 77.232 8.83698 77.9155 8.47501C78.6525 8.02486 79.4412 7.84387 80.2828 7.84387ZM80.2828 21.549C80.7565 21.549 81.2302 21.4597 81.7033 21.1894C82.1241 20.9179 82.4926 20.5571 82.8082 20.1069C83.1238 19.6568 83.3342 19.115 83.5446 18.3945C83.7027 17.7634 83.8079 16.9512 83.8079 16.1403C83.8079 15.2377 83.7027 14.516 83.5446 13.7944C83.3342 13.1633 83.1238 12.6226 82.8082 12.1725C82.4926 11.72 82.1241 11.3604 81.7033 11.09C81.2302 10.8197 80.8087 10.7292 80.2828 10.7292C79.809 10.7292 79.336 10.8197 78.8629 11.0889C78.4421 11.3604 78.0736 11.7212 77.758 12.1725C77.4424 12.6226 77.1791 13.1633 77.021 13.8849C76.8635 14.516 76.7583 15.2377 76.7583 16.1403C76.7583 16.9512 76.8635 17.7634 77.021 18.3945C77.1791 19.115 77.4417 19.6568 77.758 20.1069C78.0736 20.5571 78.4415 20.919 78.8629 21.1894C79.2837 21.4597 79.7568 21.549 80.2828 21.549ZM50.6116 8.11419H52.9789V19.4758C53.0834 22.6315 57.7135 22.541 57.6076 19.4758V8.11303H60.1859L60.133 19.7449C60.1859 25.6966 50.6632 25.6966 50.6109 19.7449L50.6116 8.11419Z" fill="black"/>
</svg>
