<svg width="130" height="33" viewBox="0 0 130 33" fill="none" xmlns="http://www.w3.org/2000/svg">
<path fill-rule="evenodd" clip-rule="evenodd" d="M66.9761 32.8708C71.5178 32.8708 74.5437 28.2863 74.5437 20.55V0.758242H69.5758V20.239C69.5758 23.8412 68.7446 25.6252 67.0025 25.6252C65.3211 25.6252 64.6013 23.7989 64.6013 20.239V0.758242H59.607V20.55C59.6136 28.4578 62.3787 32.8708 66.9747 32.8708H66.9761ZM81.9187 15.3456H81.0062V7.83237H82.3171C84.5191 7.83237 85.5758 8.9016 85.5758 11.5204C85.5685 14.3633 84.3748 15.3456 81.9187 15.3456ZM87.8532 2.48961C86.4809 0.982382 84.8552 0.758242 82.7147 0.758242H75.9776V32.3791H80.944V22.1956H82.372C84.4847 22.1956 86.0833 21.9703 87.3736 20.7741C89.3969 18.8621 90.5979 15.4851 90.5979 11.3912C90.5979 7.4264 89.6584 4.44511 87.8532 2.48961ZM118.069 14.7681L125.636 32.3802H130V0.758242H125.04V18.3269L117.582 0.758242H113.101V32.3802H118.069V14.7681ZM47.9027 25.1334C45.1031 25.1334 42.5642 21.3082 42.5642 16.3279C42.5642 11.7011 44.9317 8.01534 47.9642 8.01534C50.8187 8.01534 53.1928 11.7011 53.1928 16.3291C53.1855 21.4797 50.8187 25.1346 47.9027 25.1346V25.1334ZM55.1817 4.85108C53.2126 1.82748 50.6466 0.181883 47.9298 0.181883C45.0482 0.181883 42.5305 1.74171 40.5335 4.80877C38.5373 7.87468 37.4462 11.8829 37.4462 16.2422C37.4462 20.9125 38.4209 24.8235 40.3285 27.9878C42.324 31.279 44.8973 32.9669 47.8953 32.9669C50.722 32.9669 53.4052 31.2367 55.3736 28.0312C57.2885 24.963 58.3174 20.9125 58.3174 16.3828C58.3247 12.0533 57.2402 8.0039 55.1817 4.85108ZM101.705 25.1334C98.9066 25.1334 96.3677 21.3082 96.3677 16.3279C96.3677 11.7011 98.7418 8.01534 101.767 8.01534C104.621 8.01534 106.996 11.7011 106.996 16.3291C106.988 21.4797 104.615 25.1346 101.705 25.1346V25.1334ZM108.984 4.85108C107.016 1.82748 104.443 0.181883 101.733 0.181883C98.8443 0.181883 96.334 1.74171 94.337 4.80877C92.34 7.87468 91.2496 11.8829 91.2496 16.2422C91.2496 20.9125 92.2236 24.8235 94.1305 27.9878C96.1348 31.279 98.7001 32.9669 101.699 32.9669C104.526 32.9669 107.208 31.2367 109.177 28.0312C111.091 24.963 112.121 20.9125 112.121 16.3828C112.128 12.0533 111.042 8.0039 108.984 4.85108ZM2.87432 27.9763C4.87056 31.2675 7.41677 33.0001 10.4148 33.0001C13.872 33.0001 17.1249 30.3275 19.0662 25.9248C20.2393 23.2523 20.8091 20.2287 20.8091 16.671C20.8091 16.0077 20.7812 15.2919 20.7541 14.5749H9.18674V20.8908H14.9843C13.9818 23.6491 12.3012 25.1655 10.4148 25.1655C7.61522 25.1655 5.10417 21.2979 5.10417 16.2639C5.10417 11.7228 7.44386 7.95015 10.4148 7.95015C12.0134 7.95015 13.3235 8.97708 14.586 11.0184H20.2393C18.6136 4.25299 14.813 0.116699 10.4763 0.116699C7.59472 0.116699 5.08293 1.71998 3.08009 4.78704C1.08384 7.85524 4.12655e-05 11.8623 4.12655e-05 16.2216C-0.00728173 20.9022 0.960086 24.8132 2.87432 27.9775V27.9763ZM27.9995 15.3456H27.0314V7.83237H28.4037C30.5992 7.83237 31.6559 8.9016 31.6559 11.5204C31.6559 14.3633 30.4549 15.3456 27.9995 15.3456ZM32.0813 21.522C34.9629 20.2721 36.6787 16.456 36.6787 11.3386C36.6787 7.42754 35.7377 4.44511 33.9341 2.48961C32.5617 0.982382 30.936 0.758242 28.7948 0.758242H22.0576V32.3791H27.0248V22.1956L30.9082 32.3791H37.0485L32.0813 21.522Z" fill="black"/>
</svg>
