<svg width="130" height="33" viewBox="0 0 130 33" fill="none" xmlns="http://www.w3.org/2000/svg">
<path fill-rule="evenodd" clip-rule="evenodd" d="M53.7256 15.0911C52.1055 14.2145 50.403 13.6949 48.7421 12.987C48.0621 12.6971 47.3899 12.3549 46.7275 11.9822C45.9444 11.5415 45.3741 10.7507 45.3812 9.40091C45.3884 7.96137 45.8114 6.77621 46.6776 6.1225C47.6423 5.39386 48.6876 5.47767 49.7322 5.6443C51.4937 5.92728 52.2567 7.55317 52.5934 9.38217C52.6447 9.66124 52.7024 9.93731 52.7531 10.1966H56.8107C57.03 7.15089 55.8544 4.2935 54.2265 2.64789C53.239 1.64909 52.1321 1.15018 50.9545 0.826774C48.9633 0.279548 47.0467 0.444208 45.1541 1.53668C42.8307 2.87861 40.9044 6.05546 41.1555 10.6226C41.2574 12.4762 41.7667 13.966 42.5946 15.2449C43.6067 16.8067 44.9309 17.5333 46.2636 18.1516C47.6352 18.7895 49.0535 19.1997 50.4212 19.8553C51.1673 20.2123 51.9252 20.72 52.5474 21.425C53.6841 22.7127 53.6452 24.9894 52.5591 26.3826C52.0413 27.0471 51.4431 27.4435 50.767 27.5924C49.8262 27.7984 48.9101 27.9335 47.9447 27.6308C46.3252 27.1221 44.99 25.6155 44.7331 23.1949C44.6961 22.8429 44.6305 22.1645 44.6305 22.1645C43.2589 22.1645 41.7323 22.1547 40.4301 22.1547C40.4301 22.1547 40.4593 22.9474 40.4703 23.1475C40.6981 27.1585 42.1599 29.8394 44.4872 31.489C45.7368 32.3734 47.0863 32.7274 48.4754 32.7885C50.4212 32.8743 52.3054 32.6308 54.1045 31.3362C56.9885 29.2597 58.2232 24.4786 57.2649 20.1965C56.6836 17.5974 55.3555 15.9725 53.7256 15.0911Z" fill="white"/>
<path fill-rule="evenodd" clip-rule="evenodd" d="M34.4626 19.1123C34.2186 22.296 33.3706 25.0459 31.4482 26.7763C30.4237 27.6992 29.2974 27.7475 28.1704 27.6696C25.4506 27.4783 23.7688 24.1753 23.2621 20.7283C23.1804 20.1722 23.0681 19.6181 23.0383 19.0541C22.9994 18.3195 22.9643 17.5929 22.9643 16.8534C22.9449 14.7217 23.1596 12.6895 23.7559 10.7659C24.8342 7.28436 26.7196 5.73834 29.2085 5.91976C31.7265 6.10315 33.4024 8.94279 34.0363 11.8524C34.558 14.2504 34.6488 16.6818 34.4626 19.1123ZM36.7951 7.08914C34.8785 2.80503 32.1489 0.854751 28.2333 0.849821C27.1401 0.735447 25.605 1.31521 24.1503 2.38599C22.5056 3.59776 21.2962 5.52734 20.3704 7.88581C19.2868 10.6486 18.9034 13.7179 18.8742 16.8573C18.8534 19.0245 19.0734 21.1917 19.5905 23.2682C20.1232 25.4078 20.8648 27.3304 21.9606 28.8952C23.2641 30.7567 24.8219 31.8739 26.5808 32.4024C29.252 33.2049 31.7875 32.7041 34.12 30.5467C36.2669 28.56 37.5431 25.5478 38.1861 21.9115C38.6435 19.3223 38.7175 16.6956 38.4671 14.0256C38.2315 11.5192 37.7281 9.17548 36.7951 7.08914Z" fill="white"/>
<path fill-rule="evenodd" clip-rule="evenodd" d="M64.3193 26.6543V18.6313H72.8183V13.7744H64.3193V6.73838C67.7836 6.7019 71.3644 6.7512 74.8952 6.71077V1.33813H60.1312V32.0762H74.9218L74.8997 26.6543H64.3193Z" fill="white"/>
<path fill-rule="evenodd" clip-rule="evenodd" d="M10.4556 1.32196C7.17587 1.18688 3.89287 1.2628 0.611179 1.25689H0V6.47768H0.858376C3.63011 6.47768 6.40249 6.45599 9.17422 6.49641C9.66861 6.50332 10.2065 6.61868 10.647 6.93222C12.1237 7.98525 12.5844 10.5331 11.9758 12.576C11.4587 14.3143 10.4692 15.107 9.17876 15.0913C6.38497 15.0548 3.59053 15.0775 0.796739 15.0824H0V32.2021H4.02458C4.02458 32.2021 4.02329 31.3413 4.02393 30.9499C4.03107 27.7908 3.99344 24.6238 4.02458 21.4647C4.02458 21.4647 4.02004 19.8171 4.02458 20.0804C4.02458 20.0804 4.33861 20.0813 4.42166 20.0804C5.51491 20.0705 7.26606 20.0656 8.47415 20.0636C9.1048 22.5522 9.9781 26.0268 10.5873 28.4109C10.913 29.6848 11.2906 31.0218 11.6001 32.2021H15.6014C14.5652 28.1152 13.4707 23.8025 12.4079 19.61C12.766 19.2985 12.9101 19.2087 13.132 19.0214C14.3952 17.9546 15.262 16.3228 15.8246 14.3045C16.6317 11.4135 16.4948 8.59755 15.4476 5.90285C14.3297 3.02673 12.6363 1.41169 10.4556 1.32196Z" fill="white"/>
<path fill-rule="evenodd" clip-rule="evenodd" d="M88.1873 15.8576C87.9725 15.8576 87.4911 15.8724 87.4911 15.8724V18.6203H94.2245C94.1492 21.5714 93.6185 24.0708 92.4396 26.2144C91.1037 28.6429 89.4239 30.1761 87.3166 30.3417C86.4705 30.4078 85.5966 30.2342 84.7622 29.973C82.6769 29.3212 81.2385 27.299 80.1641 24.623C79.4822 22.9232 79.174 21.0527 79.1999 19.0581C79.2356 16.3161 78.9878 13.5583 79.5406 10.8517C80.4716 6.29847 82.7716 3.1512 85.7906 2.61483C88.4753 2.1386 90.8098 3.54264 92.5311 6.84569C92.993 7.73308 93.3609 8.7309 93.793 9.72672H95.4799C95.4085 9.31559 95.3871 9.08487 95.3294 8.87584C94.9083 7.3515 94.3789 5.92478 93.6399 4.6992C91.8926 1.8004 89.7892 0.0335204 87.1381 0.0246465C86.6723 0.0226746 86.2013 -0.0394425 85.7419 0.0414083C85.108 0.152825 84.4521 0.245507 83.8603 0.573841C81.8082 1.71265 80.1251 3.61363 78.9845 6.49271C78.2144 8.43609 77.5902 10.4662 77.563 12.802C77.5416 14.5827 77.4773 16.3634 77.4936 18.1421C77.5124 20.19 77.5961 22.23 78.1794 24.1418C79.6651 29.0116 82.0002 32.2289 85.618 32.8806C87.5261 33.2237 89.3928 32.855 91.0881 31.4115C93.2104 29.6052 94.7091 26.9598 95.4896 23.4152C95.9334 21.4018 95.973 19.3322 95.9561 17.2458C95.9561 16.7262 95.9607 16.2648 95.9698 15.8536C93.671 15.8507 90.3089 15.8517 88.1873 15.8576Z" fill="white"/>
<path fill-rule="evenodd" clip-rule="evenodd" d="M129.977 29.6258C128.769 29.6258 120.358 29.6051 119.087 29.5942V0.878357L117.296 0.904979C117.285 1.30332 117.296 22.8589 117.296 32.2012C120.893 32.2031 130 32.2021 130 32.2021L129.977 29.6258Z" fill="white"/>
<path fill-rule="evenodd" clip-rule="evenodd" d="M102.385 18.3128C103.551 13.5702 104.766 8.62949 105.934 3.87704C106 3.87605 106.174 3.87507 106.239 3.87408C106.239 3.87408 108.171 11.7471 108.567 13.3789C108.953 14.9723 109.387 16.7274 109.768 18.3128H102.385ZM109.636 10.2396C108.992 7.61392 107.988 3.50138 107.277 0.508911C106.413 0.508911 105.439 0.510883 105.047 0.510883C102.494 10.5847 99.6544 21.82 97.0747 32.2024H98.9491C99.8244 28.6085 101.446 22.0369 101.671 21.1791H110.481C111.194 24.1144 112.347 28.7021 113.196 32.2024H115.005C114.472 29.9682 113.579 26.2658 113.223 24.8183C112.027 19.9584 110.828 15.1005 109.636 10.2396Z" fill="white"/>
</svg>
