<svg width="130" height="33" viewBox="0 0 130 33" fill="none" xmlns="http://www.w3.org/2000/svg">
<path fill-rule="evenodd" clip-rule="evenodd" d="M25.3867 17.6069C28.0341 17.6069 30.6685 17.6253 33.3045 17.595C33.9374 17.5871 34.1239 16.8994 33.7468 16.0022C32.8133 13.7875 31.505 12.5978 29.8441 12.5253C27.7889 12.4331 25.7451 14.7558 25.3867 17.6069ZM25.2604 22.5448C26.2681 28.0216 30.5764 29.7304 33.0519 25.7661C33.3395 25.3076 33.5822 24.7332 33.983 24.525C34.6436 24.1811 35.2432 24.4064 35.7091 25.2654C36.1783 26.1297 36.215 27.268 35.7336 28.3352C34.7976 30.3997 33.491 31.6856 31.9962 32.3469C28.8194 33.754 26.0229 32.534 23.8642 28.5038C21.7023 24.4684 21.3284 19.7623 22.6969 14.9403C24.0589 10.1459 26.5239 7.70726 29.7798 7.59396C33.3778 7.4688 36.6052 11.6913 37.3888 17.3697C37.7426 19.9375 36.4626 22.5132 34.7691 22.5356C31.8977 22.5738 29.0246 22.5448 26.1524 22.5448H25.2604Z" fill="white"/>
<path fill-rule="evenodd" clip-rule="evenodd" d="M93.8406 17.607C95.0836 17.607 96.3275 17.6281 97.5722 17.6004C98.2328 17.5833 98.4764 16.9404 98.1261 16.0959C97.1177 13.6664 95.6954 12.4003 93.8789 12.5373C92.0298 12.6783 90.6938 14.2158 89.8174 16.831C89.5722 17.5596 89.806 17.6228 90.1864 17.6163C91.4034 17.5952 92.622 17.607 93.8406 17.607ZM94.669 22.545C93.1686 22.545 91.6681 22.5792 90.1701 22.5265C89.6096 22.5094 89.5135 22.7084 89.7506 23.5436C91.1003 28.2774 95.0625 29.4868 97.3889 25.844C97.8125 25.18 98.2247 24.4619 98.8731 24.5331C99.4238 24.5937 99.8987 24.9244 100.165 25.8189C100.464 26.8255 100.363 27.757 99.9703 28.5923C99.181 30.2747 98.1131 31.4077 96.9051 32.0994C93.8251 33.8675 91.0034 32.9558 88.6606 29.3248C86.4474 25.8967 85.7428 21.5397 86.594 16.7836C87.4795 11.8312 89.6056 8.78512 92.7385 7.7812C96.6322 6.53485 100.56 10.5677 101.621 16.7717C102.15 19.8613 100.919 22.5186 98.9383 22.5423C97.5152 22.5595 96.0913 22.545 94.669 22.545Z" fill="white"/>
<path fill-rule="evenodd" clip-rule="evenodd" d="M13.3263 14.1549C11.9798 14.1549 10.6333 14.1444 9.28678 14.1576C8.21234 14.1681 7.53461 15.1286 7.55497 16.5725C7.57452 18.0389 8.23352 18.9269 9.31203 18.9295C11.5733 18.9335 13.8354 18.915 16.0959 18.9374C17.0164 18.948 17.1891 19.3906 16.8811 20.7674C15.757 25.7976 12.5117 28.9266 9.13934 28.2297C5.10063 27.397 2.29602 21.1337 2.99737 14.512C3.67918 8.07341 7.63561 3.78762 11.6043 5.16176C12.9866 5.64001 14.136 6.74934 15.173 8.26708C16.1505 9.69919 17.4505 9.07866 17.708 7.10374C17.8619 5.918 17.4237 5.14859 16.9308 4.47667C13.8444 0.256696 10.3368 -0.961982 6.56281 1.34236C2.76196 3.66246 0.535702 8.28948 0.0656865 14.8756C-0.554212 23.5631 3.28492 31.5972 8.5618 32.8277C13.9788 34.0886 19.0479 28.2982 20.0458 19.7147C20.4091 16.5949 19.188 14.1866 17.2143 14.1576C15.9183 14.1391 14.6223 14.1549 13.3263 14.1549Z" fill="white"/>
<path fill-rule="evenodd" clip-rule="evenodd" d="M110.064 7.64455C108.298 7.57209 106.692 8.39288 105.285 10.0648C103.914 11.6879 103.347 13.9685 103.697 16.6641C104.033 19.249 105.035 20.9499 106.661 21.5401C108.342 22.1501 110.032 22.7008 111.717 23.2792C112.31 23.4821 112.858 23.7627 112.978 24.9234C113.101 26.1184 112.665 26.7455 112.095 27.2369C111.894 27.4082 111.686 27.5676 111.472 27.6888C109.42 28.8456 107.764 27.6757 106.282 25.4004C105.529 24.2423 104.67 24.1738 104.049 25.1421C103.452 26.0736 103.465 27.5953 104.08 28.8179C106.555 33.7453 111.946 34.4423 114.863 30.2105C116.082 28.4424 116.597 26.2725 116.165 23.6784C115.737 21.1067 114.651 19.5915 113.048 19.0329C111.388 18.4519 109.727 17.8749 108.069 17.2886C107.451 17.0712 106.959 16.5574 106.896 15.4678C106.834 14.3901 107.25 13.7735 107.829 13.3203C109.731 11.8302 112.046 12.4942 113.487 14.9869C114.249 16.3044 115.126 16.4928 115.816 15.4849C116.515 14.4665 116.48 12.8776 115.697 11.572C114.157 9.00683 112.279 7.68407 110.064 7.64455Z" fill="white"/>
<path fill-rule="evenodd" clip-rule="evenodd" d="M121.252 17.4294C121.294 19.262 121.155 21.3555 121.477 23.4266C122.258 28.4739 125.184 32.6069 128.219 32.8875C129.168 32.9784 129.822 32.2222 129.938 30.9034C130.066 29.4515 129.591 28.4278 128.639 28.1024C128.465 28.0444 128.29 27.9917 128.117 27.9351C125.893 27.2236 124.239 23.9786 124.23 20.3015C124.225 17.9999 124.249 15.6982 124.219 13.3966C124.208 12.6258 124.309 12.3399 124.83 12.3689C126.022 12.4388 127.218 12.3992 128.412 12.3887C129.371 12.3795 129.993 11.4427 130 10.0212C130.007 8.59959 129.394 7.67208 128.42 7.66154C127.252 7.64837 126.083 7.60884 124.915 7.67999C124.337 7.71424 124.101 7.49158 124.142 6.48239C124.197 5.1728 124.163 3.85268 124.154 2.53782C124.141 0.950234 123.578 -0.00231044 122.682 0.0134994C121.821 0.0293093 121.272 0.968678 121.253 2.48249C121.244 3.22292 121.266 3.96203 121.249 4.70114C121.227 5.64051 121.486 6.80649 121.136 7.44942C120.807 8.05415 120.083 7.59567 119.537 7.65495C118.733 7.74322 118.164 8.67996 118.153 9.96583C118.14 11.2886 118.735 12.3268 119.553 12.3874C119.857 12.4085 120.167 12.4453 120.467 12.3795C121.071 12.2438 121.33 12.5152 121.268 13.6021C121.198 14.7839 121.252 15.9828 121.252 17.4294Z" fill="white"/>
<path fill-rule="evenodd" clip-rule="evenodd" d="M61.789 10.1807C61.6318 10.0094 61.6961 9.78672 61.6709 9.60359C61.4811 8.2479 60.8522 7.52064 59.9994 7.66952C59.2622 7.79336 58.7775 8.70506 58.7758 10.0581C58.7693 16.8748 58.775 23.6928 58.7701 30.5121C58.7701 31.5819 59.0724 32.3158 59.6703 32.7123C60.6803 33.3803 61.6782 32.2512 61.6912 30.3712C61.7157 27.2092 61.7067 24.0459 61.6937 20.8839C61.6888 19.9288 61.7605 18.996 61.9258 18.0909C62.4822 15.0514 63.7872 13.3334 65.6509 12.5693C66.6537 12.1595 67.0781 11.0146 66.8525 9.54694C66.6496 8.23209 65.8872 7.59047 64.9366 7.90008C63.7758 8.2782 62.751 9.14247 61.789 10.1807Z" fill="white"/>
<path fill-rule="evenodd" clip-rule="evenodd" d="M13.3263 14.1549C14.6223 14.1549 15.9183 14.1391 17.2143 14.1576C19.188 14.1866 20.4091 16.5949 20.0458 19.7147C19.0479 28.2982 13.9788 34.0886 8.5618 32.8277C3.28492 31.5972 -0.554212 23.5631 0.0656865 14.8756C0.535702 8.28948 2.76196 3.66246 6.56281 1.34236C10.3368 -0.961982 13.8444 0.256696 16.9308 4.47667C17.4237 5.14859 17.8619 5.918 17.708 7.10374C17.4505 9.07866 16.1505 9.69919 15.173 8.26708C14.136 6.74934 12.9866 5.64001 11.6043 5.16176C7.63561 3.78762 3.67918 8.07341 2.99737 14.512C2.29602 21.1337 5.10063 27.397 9.13934 28.2297C12.5117 28.9266 15.757 25.7976 16.8811 20.7674C17.1891 19.3906 17.0164 18.948 16.0959 18.9374C13.8354 18.915 11.5733 18.9335 9.31203 18.9295C8.23352 18.9269 7.57452 18.0389 7.55497 16.5725C7.53461 15.1286 8.21234 14.1681 9.28678 14.1576C10.6333 14.1444 11.9798 14.1549 13.3263 14.1549Z" fill="white"/>
<path fill-rule="evenodd" clip-rule="evenodd" d="M81.3709 20.2136C81.3701 15.9739 79.2456 12.5234 76.6325 12.5181C74.0413 12.5128 71.8598 16.0015 71.8435 20.1754C71.8256 24.5652 73.9712 28.0882 76.6365 28.046C79.3002 28.0065 81.3733 24.5758 81.3709 20.2136ZM71.7653 30.324C71.7352 30.4821 71.7026 30.6283 71.6798 30.7785C71.4419 32.3252 70.8937 33.013 70.0148 32.8615C69.2409 32.7244 68.744 31.739 68.7408 30.2317C68.7318 25.3439 68.7375 20.4533 68.7375 15.5641C68.7375 11.2889 68.7326 7.01495 68.7399 2.74234C68.7424 1.25489 69.1676 0.301082 69.8926 0.0599819C70.8831 -0.26939 71.6716 0.785918 71.6855 2.53286C71.705 5.03609 71.6896 7.54195 71.6896 10.3298C73.6087 7.98594 75.6908 7.22707 77.9154 7.79227C80.1572 8.36274 81.9289 10.2626 83.1817 13.3257C85.1261 18.0792 84.7661 24.6838 82.3712 28.8194C79.591 33.619 76.0468 34.1302 71.7653 30.324Z" fill="white"/>
<path fill-rule="evenodd" clip-rule="evenodd" d="M47.1128 27.9679C49.8091 27.9758 51.9237 24.6268 51.9368 20.3238C51.9482 16.0196 49.84 12.5559 47.1853 12.5177C44.52 12.4795 42.3507 15.9946 42.3548 20.341C42.3589 24.5741 44.4711 27.9587 47.1128 27.9679ZM52.0288 10.2543C52.182 8.56261 52.6104 7.75763 53.4095 7.66145C54.2755 7.55868 54.9744 8.47829 54.9801 9.89064C55.0053 16.8391 55.0102 23.7836 55.0053 30.732C55.0045 31.8216 54.4872 32.6977 53.8527 32.8703C53.135 33.0653 52.5127 32.5554 52.2349 31.5067C52.1396 31.1431 52.094 30.7452 52.0264 30.3618C47.4696 34.2655 43.5954 33.4566 40.9651 28.0562C38.6191 23.2421 38.769 16.4926 41.3447 11.7602C43.4252 7.93812 47.7685 5.36375 52.0288 10.2543Z" fill="white"/>
<path fill-rule="evenodd" clip-rule="evenodd" d="M110.064 7.64455C112.279 7.68407 114.157 9.00683 115.697 11.572C116.48 12.8776 116.515 14.4665 115.816 15.4849C115.126 16.4928 114.249 16.3044 113.487 14.9869C112.046 12.4942 109.731 11.8302 107.829 13.3203C107.25 13.7735 106.834 14.3901 106.896 15.4678C106.959 16.5574 107.451 17.0712 108.069 17.2886C109.727 17.8749 111.388 18.4519 113.048 19.0329C114.651 19.5915 115.737 21.1067 116.165 23.6784C116.597 26.2725 116.082 28.4424 114.863 30.2105C111.946 34.4423 106.555 33.7453 104.08 28.8179C103.465 27.5953 103.452 26.0736 104.049 25.1421C104.67 24.1738 105.529 24.2423 106.282 25.4004C107.764 27.6757 109.42 28.8456 111.472 27.6888C111.686 27.5676 111.894 27.4082 112.095 27.2369C112.665 26.7455 113.101 26.1184 112.978 24.9234C112.858 23.7627 112.31 23.4821 111.717 23.2792C110.032 22.7008 108.342 22.1501 106.661 21.5401C105.035 20.9499 104.033 19.249 103.697 16.6641C103.347 13.9685 103.914 11.6879 105.285 10.0648C106.692 8.39288 108.298 7.57209 110.064 7.64455Z" fill="white"/>
<path fill-rule="evenodd" clip-rule="evenodd" d="M121.252 17.4294C121.252 15.9828 121.198 14.7839 121.268 13.6021C121.33 12.5152 121.071 12.2438 120.467 12.3795C120.167 12.4453 119.857 12.4085 119.553 12.3874C118.735 12.3268 118.14 11.2886 118.153 9.96583C118.164 8.67996 118.733 7.74322 119.537 7.65495C120.083 7.59567 120.807 8.05415 121.136 7.44942C121.486 6.80649 121.227 5.64051 121.249 4.70114C121.266 3.96203 121.244 3.22292 121.253 2.48249C121.272 0.968678 121.821 0.0293093 122.682 0.0134994C123.578 -0.00231044 124.141 0.950234 124.154 2.53782C124.163 3.85268 124.197 5.1728 124.142 6.48239C124.101 7.49158 124.337 7.71424 124.915 7.67999C126.083 7.60884 127.252 7.64837 128.42 7.66154C129.394 7.67208 130.007 8.59959 130 10.0212C129.993 11.4427 129.371 12.3795 128.412 12.3887C127.218 12.3992 126.022 12.4388 124.83 12.3689C124.309 12.3399 124.208 12.6258 124.219 13.3966C124.249 15.6982 124.225 17.9999 124.23 20.3015C124.239 23.9786 125.893 27.2236 128.117 27.9351C128.29 27.9917 128.465 28.0444 128.639 28.1024C129.591 28.4278 130.066 29.4515 129.938 30.9034C129.822 32.2222 129.168 32.9784 128.219 32.8875C125.184 32.6069 122.258 28.4739 121.477 23.4266C121.155 21.3555 121.294 19.262 121.252 17.4294Z" fill="white"/>
<path fill-rule="evenodd" clip-rule="evenodd" d="M61.789 10.1807C62.751 9.14247 63.7758 8.2782 64.9366 7.90008C65.8872 7.59047 66.6496 8.23209 66.8525 9.54694C67.0781 11.0146 66.6537 12.1595 65.6509 12.5693C63.7872 13.3334 62.4822 15.0514 61.9258 18.0909C61.7605 18.996 61.6888 19.9288 61.6937 20.8839C61.7067 24.0459 61.7157 27.2092 61.6912 30.3712C61.6782 32.2512 60.6803 33.3803 59.6703 32.7123C59.0724 32.3158 58.7701 31.5819 58.7701 30.5121C58.775 23.6928 58.7693 16.8748 58.7758 10.0581C58.7775 8.70506 59.2622 7.79336 59.9994 7.66952C60.8522 7.52064 61.4811 8.2479 61.6709 9.60359C61.6961 9.78672 61.6318 10.0094 61.789 10.1807Z" fill="white"/>
</svg>
