<svg width="130" height="33" viewBox="0 0 130 33" fill="none" xmlns="http://www.w3.org/2000/svg">
<path fill-rule="evenodd" clip-rule="evenodd" d="M32.4405 24.587V2.73893H44.2693V5.47786H34.8899V12.195H43.3134V14.9347H34.8899V21.7824H44.9266V24.5213H32.4405V24.587ZM57.3529 24.587L53.2902 18.7831L49.2275 24.587H46.3609L51.9164 16.826L46.0615 8.80397H49.288L53.2902 14.8049L57.3529 8.80397H60.5188L54.9633 16.826L60.2208 24.587H57.3529ZM64.1638 22.239V33H61.7143V16.891C61.7143 12.7822 64.5815 8.41302 69.0627 8.41302C73.6024 8.41302 77.0078 11.5437 77.0078 16.6955C77.0078 21.7175 73.5432 25.1742 69.6002 25.1742C67.6883 25.1742 65.1198 24.2609 64.1638 22.239ZM74.4393 16.6955C74.4393 13.1739 72.3484 11.0878 68.6443 11.2825C66.8521 11.3482 64.1046 12.7822 64.3427 17.8049C64.4026 19.4352 65.956 22.4994 69.3614 22.4994C72.2885 22.4994 74.4393 20.6737 74.4393 16.6955ZM79.0994 24.587V8.80397H81.5489V10.4999C82.7437 8.99945 84.595 8.47793 86.5669 8.47793V11.3482C86.2682 11.2825 83.3404 10.8908 81.5489 15.0652V24.6526H79.0994V24.587ZM87.2241 16.6962C87.2241 12.1301 90.2111 8.41302 94.333 8.41302C99.4715 8.41302 101.383 12.1308 101.383 16.891V18.1959H89.9124C90.0914 21.196 92.5408 22.7605 94.8114 22.6956C96.4838 22.6307 97.6194 22.1092 98.8149 20.805L100.427 22.6315C98.934 24.196 97.022 25.2391 94.6923 25.2391C90.3309 25.1742 87.2241 21.6526 87.2241 16.6962ZM94.1541 11.0878C91.8244 11.0878 90.0322 13.3037 89.9124 15.7181H98.8142C98.8142 13.3694 97.2615 11.0878 94.1541 11.0878ZM102.638 22.3696L104.43 20.6088C104.37 20.6088 105.326 21.6526 105.446 21.7175C105.864 22.1092 106.282 22.3696 106.82 22.5001C108.373 22.9568 111.181 22.8262 111.42 20.4782C111.539 19.174 110.643 18.4563 109.628 17.9997C108.313 17.4789 106.879 17.2827 105.565 16.6306C104.071 15.9136 103.116 14.6743 103.116 12.8486C103.116 8.08622 109.329 7.30432 112.137 9.52173C112.256 9.6523 113.63 11.0214 113.571 11.0214L111.778 12.5875C110.883 11.4131 110.046 10.8259 108.134 10.8259C107.178 10.8259 105.864 11.2825 105.625 12.3912C105.267 13.9565 106.879 14.5437 107.955 14.8698C109.389 15.2607 110.942 15.5219 112.196 16.3694C113.929 17.5438 114.348 20.0865 113.69 22.0435C112.973 24.196 110.822 25.0436 108.911 25.1077C106.641 25.2391 104.669 24.4564 103.056 22.6964C102.936 22.6964 102.638 22.3696 102.638 22.3696ZM115.243 22.3696L117.036 20.6088C116.976 20.6088 117.932 21.6526 118.051 21.7175C118.469 22.1092 118.888 22.3696 119.425 22.5001C120.978 22.9568 123.787 22.8262 124.026 20.4782C124.144 19.174 123.249 18.4563 122.233 17.9997C120.919 17.4789 119.485 17.2827 118.171 16.6306C116.678 15.9136 115.722 14.6743 115.722 12.8486C115.722 8.08622 121.935 7.30432 124.742 9.52173C124.862 9.6523 126.236 11.0214 126.177 11.0214L124.385 12.5875C123.488 11.4131 122.651 10.8259 120.74 10.8259C119.784 10.8259 118.47 11.2825 118.23 12.3912C117.872 13.9565 119.485 14.5437 120.56 14.8698C121.994 15.2607 123.548 15.5219 124.802 16.3694C126.535 17.5438 126.954 20.0865 126.296 22.0435C125.579 24.196 123.429 25.0436 121.516 25.1077C119.246 25.2391 117.275 24.4564 115.662 22.6964C115.542 22.6964 115.244 22.3696 115.244 22.3696H115.243ZM126.893 8.80397V7.10809H126.356V6.78204H127.789V7.10809H127.252V8.80397H126.893ZM129.582 8.80397V7.23941L129.044 8.80397H128.924L128.387 7.23941V8.80397H128.088V6.78204H128.566L129.044 8.15264L129.522 6.78204H130V8.80397H129.582ZM15.8317 24.587L14.0395 19.3695H4.36142L2.56853 24.587H0L7.76686 2.73893H10.5742L18.2819 24.587H15.8317ZM9.08071 5.86957L5.43715 16.6962H13.0237L9.08071 5.86957ZM19.8944 24.587H22.4038V2.73968H19.8944V24.587ZM26.1671 24.587H28.6765V9.13077H26.1671V24.587ZM31.066 4.10877V3.84764C29.1548 3.78273 27.6007 2.08684 27.5415 0H27.183C27.1231 2.08684 25.5697 3.78273 23.6585 3.84764V4.10877C25.5697 4.17368 27.1231 5.86957 27.183 7.95641H27.5415C27.6007 5.86957 29.1548 4.17368 31.066 4.10877Z" fill="white"/>
</svg>
