<svg width="130" height="33" viewBox="0 0 130 33" fill="none" xmlns="http://www.w3.org/2000/svg">
<path fill-rule="evenodd" clip-rule="evenodd" d="M110.505 11.0802C110.442 10.9345 110.345 10.8474 110.244 10.8474H108.47C108.309 10.8474 108.167 11.062 108.135 11.3624L107.997 12.6369C107.603 11.9658 107.211 11.5367 106.648 11.1218L106.471 10.9749C106.449 10.9606 106.428 10.9436 106.406 10.9358C104.48 10.1334 102.544 11.235 100.96 14.0362C100.169 15.4186 99.5688 17.0208 99.1711 18.7453L101.501 0.777695C101.522 0.63464 101.504 0.478581 101.455 0.361537C101.408 0.244493 101.332 0.175567 101.254 0.175567H99.0946C99.0194 0.175567 98.9511 0.234089 98.9026 0.340729L89.5075 20.475C89.8369 17.4578 91.6831 0.760788 91.6831 0.760788C91.6831 0.728276 91.6879 0.691862 91.6879 0.66065C91.6879 0.552709 91.6694 0.440867 91.6305 0.355035C91.5826 0.241892 91.5082 0.175567 91.4323 0.175567H89.0477C88.9718 0.175567 88.9008 0.23799 88.8529 0.340729L76.9379 26.4676C76.7377 22.6637 75.7852 18.5216 75.7852 18.5216C74.1884 12.3092 70.6353 10.2973 68.6204 13.8594L68.6067 13.8659L68.2903 14.3015C69.7519 9.87204 73.4607 10.0697 75.8474 15.2847C75.8474 15.2847 76.9085 17.7062 77.6608 21.3086C77.8617 20.0367 77.9847 18.718 78.0223 17.3707C76.7787 14.178 75.378 12.3027 75.378 12.3027C72.362 8.4402 68.7522 10.071 67.9453 15.0688L67.9343 15.0896L67.7786 15.7659C67.8769 10.5379 71.1389 7.19302 74.5786 9.44158C74.5786 9.44158 76.1979 10.5704 77.8323 13.07C77.8105 12.871 77.7879 12.672 77.7592 12.4717C77.5829 11.1517 77.326 9.89935 76.996 8.73281C75.0896 7.16571 73.3992 6.8744 73.3992 6.8744C69.7689 6.39582 67.0741 11.2285 67.6918 16.3238L67.687 16.3511L67.728 17.0885C66.438 12.4665 68.3812 6.47645 71.9507 5.15385C71.9507 5.15385 73.609 4.60765 75.6472 5.18376C75.1306 4.14727 74.5403 3.23953 73.8857 2.47224C71.842 2.92741 70.3169 4.27082 70.3169 4.27082C67.0488 7.29836 65.987 14.0466 67.864 17.8766L67.866 17.8987L68.0963 18.5008C65.7629 15.723 65.8688 8.68599 68.6128 4.15247C68.6128 4.15247 69.8954 2.1237 71.8038 0.68536C71.0166 0.23799 70.2001 0.00910345 69.3774 0C67.782 2.30447 66.8513 4.80792 66.8513 4.80792C64.8172 10.5366 65.6761 17.3876 68.3074 18.9222L68.3177 18.9378L68.675 19.2408C65.9235 19.0535 64.1613 12.858 65.3447 6.3269C65.3447 6.3269 65.89 3.51003 67.0925 0.548808C66.4038 0.888237 65.7526 1.38372 65.1418 2.00536C64.3649 5.52319 64.2194 8.58585 64.2194 8.58585C63.9665 15.4785 66.5138 20.5959 69.1977 19.4268L69.21 19.4333L69.5995 19.3513C67.1657 21.8041 64.0082 18.1133 63.3154 11.3312C63.3154 11.3312 63.0373 8.30104 63.3154 4.52571C62.7353 5.56871 62.2276 6.76646 61.8074 8.10467C62.0677 11.8241 62.7332 14.5577 62.7332 14.5577C64.3287 20.7676 67.8817 22.782 69.8967 19.2174L69.9118 19.2122L70.2274 18.7778C68.7666 23.206 65.0571 23.0083 62.6717 17.7933C62.6717 17.7933 61.4487 14.8919 60.8091 11.512C60.8105 11.3533 60.7852 11.2011 60.7326 11.0802C60.667 10.9345 60.5713 10.8474 60.4675 10.8474H58.6957C58.5331 10.8474 58.393 11.062 58.3589 11.3624C58.3589 11.3624 58.2229 11.7552 58.1607 12.5276C57.7671 11.8592 57.3005 11.4716 56.8748 11.1218L56.6944 10.9749C56.6739 10.9606 56.6514 10.9436 56.6309 10.9358C54.7054 10.1334 52.7703 11.235 51.1851 14.0362C50.2483 15.6735 49.576 17.6152 49.194 19.7129L49.1613 19.8507L49.9149 11.6056C49.9313 11.4196 49.904 11.2246 49.8384 11.0776C49.7721 10.9319 49.6758 10.8461 49.576 10.8474L47.6847 10.8526C47.5193 10.8539 47.3772 11.0776 47.3478 11.3897L45.3937 31.6202C45.3766 31.8101 45.4046 32.0064 45.4688 32.156C45.5337 32.3003 45.6307 32.3849 45.7319 32.3849L47.725 32.394C47.8931 32.394 48.0359 32.1651 48.0632 31.853L48.8162 23.6208C48.8244 23.6729 48.8312 23.7067 48.8312 23.7067C48.8244 24.5247 48.8599 25.3544 48.9406 26.1828C49.2337 29.2767 50.6781 32.1625 52.2353 32.7503C53.5937 33.2172 55.0463 32.563 56.4799 30.8828C56.4518 31.1767 56.4067 31.6202 56.4067 31.6202C56.4026 31.6592 56.4013 31.6982 56.4013 31.7398C56.4013 31.8907 56.4286 32.0389 56.4799 32.156C56.5441 32.3029 56.6411 32.3849 56.745 32.3849L58.5037 32.394C58.6691 32.394 58.8112 32.1729 58.8413 31.8634L60.3896 15.9414C61.5477 18.5528 63.0626 20.7832 63.0626 20.7832C66.0779 24.6482 69.6863 23.0161 70.4932 18.0209L70.5055 17.9988L70.662 17.32C70.5636 22.5466 67.3003 25.8967 63.8606 23.6443C63.8606 23.6443 62.3772 22.6091 60.8146 20.3254C60.8276 20.4333 60.8392 20.5452 60.8535 20.6557C61.0394 22.0225 61.3079 23.3204 61.6557 24.5247C63.4732 25.9461 65.0413 26.2153 65.0413 26.2153C68.6695 26.6965 71.3651 21.86 70.7488 16.7634L70.7536 16.7373L70.7105 15.9974C72.0019 20.6193 70.058 26.6185 66.4865 27.932C66.4865 27.932 64.9266 28.4522 62.9696 27.9489C63.4384 28.8852 63.9659 29.7254 64.5487 30.4458C66.5767 29.979 68.0785 28.6525 68.0785 28.6525C71.348 25.6262 72.4112 18.8766 70.5342 15.0506L70.5301 15.022L70.3005 14.4238C72.6346 17.2003 72.5301 24.2373 69.7853 28.7721C69.7853 28.7721 68.4762 30.836 66.5411 32.2769C67.0741 32.619 67.6235 32.8608 68.179 33H68.9702C70.5957 30.6721 71.5441 28.1154 71.5441 28.1154C73.5803 22.3867 72.7221 15.5331 70.0887 14.0024L70.0785 13.9816L69.7225 13.6825C72.4747 13.8711 74.2376 20.0653 73.0535 26.599C73.0535 26.599 72.4617 29.6551 71.1505 32.7542C71.2558 32.71 71.3569 32.6684 71.4614 32.6164C72.1269 32.2964 72.7528 31.827 73.3343 31.2573C74.1474 27.6641 74.2977 24.4883 74.2977 24.4883C74.5526 17.6009 72.0046 12.4795 69.3187 13.6513L69.3077 13.6461L68.919 13.7241C71.3514 11.274 74.5109 14.9648 75.2051 21.7468C75.2051 21.7468 75.6055 24.8602 75.3056 28.5484C75.2482 29.0816 75.1306 29.8528 74.9038 30.6773C74.8355 30.9062 74.7501 31.1767 74.6462 31.4914L74.6489 31.4823C74.6476 31.4914 74.6435 31.4979 74.6407 31.5083C74.638 31.5174 74.638 31.5187 74.638 31.5265C74.597 31.6579 74.5888 31.8231 74.6243 31.9687C74.664 32.143 74.7555 32.2535 74.8573 32.2496H75.9636C76.5457 32.2444 77.0452 32.2379 77.71 32.2821C77.7893 32.2847 77.8651 32.2197 77.9157 32.1092L87.5363 10.2687C87.1304 14.2534 85.9791 24.4987 85.155 31.6917C85.153 31.7268 85.1509 31.7619 85.1509 31.7957C85.1509 31.9063 85.1701 32.0142 85.2056 32.1001C85.2555 32.2171 85.3286 32.2821 85.4092 32.2821L87.3552 32.2496C87.429 32.2496 87.4994 32.1898 87.5472 32.0806C87.5472 32.0806 96.1763 12.9152 97.2805 10.4664C96.8206 14.4667 95.5607 24.5715 94.6629 31.6813C94.656 31.7203 94.6533 31.7541 94.6533 31.7944C94.6533 31.8998 94.6724 32.0077 94.7093 32.0949C94.7585 32.2132 94.8316 32.2821 94.9116 32.2821H97.2129C97.3304 32.2821 97.4349 32.13 97.4629 31.9089L98.4592 24.2347L98.5979 23.1553C98.6026 23.4635 98.6047 23.7067 98.6047 23.7067C98.5999 24.5247 98.6354 25.3544 98.7161 26.1828C99.0065 29.2767 100.454 32.1625 102.009 32.7503C103.366 33.2172 104.821 32.563 106.254 30.8828L106.181 31.6202C106.177 31.6592 106.175 31.6982 106.175 31.7398C106.175 31.8907 106.202 32.0389 106.253 32.156C106.32 32.3029 106.417 32.3849 106.516 32.3849L108.277 32.394C108.444 32.394 108.585 32.1729 108.615 31.8634L110.204 15.8322L110.585 11.512C110.586 11.3533 110.561 11.2011 110.505 11.0802ZM0 31.97V31.5669C0.0109325 31.5252 0.0239147 31.4849 0.0409967 31.4498L14.2559 0.340729C14.3051 0.23669 14.3748 0.174266 14.4507 0.174266H16.7451C16.8203 0.174266 16.8927 0.240591 16.9433 0.353734C16.9795 0.439566 17.0007 0.55401 17.0007 0.65935C17.0007 0.690562 16.9973 0.726975 16.9938 0.759488C16.9938 0.759488 15.2139 17.4552 14.8825 20.475C16.0051 18.069 24.279 0.340729 24.279 0.340729C24.3268 0.234089 24.3978 0.175567 24.4689 0.175567H26.6294C26.7087 0.175567 26.7839 0.244493 26.8324 0.361537C26.8802 0.478581 26.898 0.63464 26.8775 0.777695L24.6103 18.2563C24.6295 18.1913 24.6452 18.1276 24.663 18.0677C25.7419 14.083 27.7924 11.2818 30.011 10.7668C30.0178 10.7629 30.0267 10.7629 30.0356 10.7629C32.0424 10.5704 33.5914 12.0114 34.5199 14.9245L34.535 14.9713C34.8684 16.2432 35.1171 17.9533 35.1615 19.7129C35.5408 17.6152 36.2138 15.6735 37.1499 14.0362C38.7351 11.235 40.6688 10.1334 42.5963 10.9358C42.6161 10.9436 42.64 10.9606 42.6598 10.9749L42.8389 11.1218C43.2666 11.4716 43.7319 11.8592 44.1255 12.5276C44.3339 10.6666 44.9454 5.14345 44.9454 5.14345C44.9796 4.84434 45.119 4.62845 45.2802 4.62845H47.0533C47.1558 4.62845 47.2515 4.71559 47.3171 4.85994C47.382 5.0082 47.4093 5.20587 47.3922 5.39574L44.806 31.8634C44.7753 32.1729 44.6345 32.394 44.4692 32.394L42.7097 32.3849C42.6072 32.3849 42.5088 32.3029 42.4439 32.156C42.3927 32.0389 42.3647 31.8907 42.3647 31.7398C42.3647 31.6995 42.3674 31.6579 42.3715 31.6202C42.3715 31.6202 42.4159 31.1767 42.4439 30.8828C41.0104 32.563 39.5598 33.2172 38.2001 32.749C36.6443 32.1625 35.1978 29.2767 34.9053 26.1828C34.826 25.3544 34.7905 24.5247 34.7946 23.7067C34.7331 23.8107 34.6518 23.8757 34.565 23.8757L26.3999 23.8822C26.3923 23.9473 26.3862 24.0032 26.3862 24.0708C26.3862 24.3075 26.4299 24.617 26.4859 24.9682L26.5208 25.1957C26.9082 27.0034 27.8382 28.1375 28.8931 28.0893C29.942 28.0438 30.9136 27.0906 31.7773 25.2582C31.8408 25.119 31.9344 25.041 32.0308 25.041H33.851C33.9685 25.041 34.0792 25.1554 34.14 25.3453C34.2036 25.5339 34.2118 25.7706 34.1626 25.9721C33.1288 30.0973 30.8118 32.8674 28.38 32.8674C26.6875 32.7425 25.2677 31.1793 24.4771 28.5653C24.0835 27.1725 23.897 25.4441 23.9079 23.6729L22.84 31.9089C22.8113 32.13 22.7067 32.2821 22.5892 32.2821H20.2866C20.2087 32.2821 20.1342 32.2132 20.087 32.0949C20.0488 32.0077 20.0296 31.8998 20.0296 31.7957C20.0296 31.7541 20.0331 31.719 20.0365 31.6813C20.9364 24.5715 22.197 14.4667 22.6548 10.4677L12.9229 32.0819C12.875 32.1898 12.8053 32.2496 12.7309 32.2496L10.7856 32.2821C10.707 32.2821 10.6346 32.2171 10.5847 32.1001C10.5478 32.0142 10.5273 31.905 10.5273 31.7944C10.5273 31.7619 10.5273 31.7268 10.5321 31.6917C11.3554 24.4987 12.5067 14.2521 12.9119 10.2687L3.29136 32.1092C3.24148 32.2197 3.16563 32.2847 3.08637 32.2821C2.42222 32.2379 1.92206 32.2431 1.33991 32.2496H0.232315C0.133239 32.2535 0.0423633 32.143 0 31.97ZM107.341 22.1331C106.943 24.7757 105.626 27.2921 104.338 27.8852C103.353 28.1323 102.631 27.9567 102.131 27.339C101.6 26.6471 101.334 25.4467 101.128 24.3647C101.094 23.9772 101.073 23.587 101.073 23.206C101.073 20.7988 101.753 18.4787 103.002 16.7009C103.717 15.749 104.693 15.3874 105.547 15.7594C106.029 15.9713 106.691 16.515 107.102 17.9312C107.331 18.6998 107.455 19.6739 107.455 20.6232C107.455 21.1486 107.416 21.6636 107.341 22.1331ZM27.1679 19.0964L32.4585 19.0015C32.4175 18.2823 32.218 17.61 31.7998 16.8141C31.3386 16.0637 30.7066 15.7113 29.8081 15.7021C28.8351 15.9596 27.6988 17.1743 27.1679 19.0964ZM43.5324 22.1331C43.6076 21.6636 43.6438 21.1486 43.6438 20.6245C43.6438 19.6739 43.5221 18.6998 43.2926 17.9325C42.8778 16.515 42.2198 15.9714 41.7361 15.7607C40.8833 15.3874 39.9069 15.7477 39.1888 16.7009C37.9432 18.4787 37.2633 20.7975 37.2633 23.206C37.2633 23.587 37.2824 23.9772 37.318 24.3647C37.5236 25.4467 37.7894 26.6471 38.3197 27.339C38.8226 27.9567 39.5455 28.1323 40.5273 27.8852C41.8146 27.2921 43.1313 24.7757 43.5324 22.1331ZM47.8425 5.14345L47.4291 9.39866C47.41 9.58853 47.438 9.78751 47.5029 9.94097C47.5678 10.0866 47.6642 10.1725 47.768 10.1725H49.7632C49.9272 10.1725 50.0707 9.95137 50.1001 9.63925L50.4752 5.42175C50.4909 5.23318 50.4643 5.03551 50.4007 4.88855C50.3358 4.7416 50.2395 4.65446 50.1411 4.65316L48.1794 4.62065C48.0154 4.61805 47.874 4.84043 47.8425 5.14345ZM57.5676 22.1331C57.1679 24.7757 55.8499 27.2921 54.5639 27.8852C53.58 28.1323 52.8585 27.9567 52.3556 27.339C51.8254 26.6471 51.5602 25.4467 51.3546 24.3647C51.319 23.9772 51.2999 23.587 51.2999 23.206C51.2999 20.7988 51.9784 18.4787 53.2268 16.7009C53.9442 15.749 54.9179 15.3874 55.7733 15.7594C56.2557 15.9713 56.9151 16.515 57.3278 17.9312C57.5581 18.6998 57.6811 19.6739 57.6811 20.6232C57.6811 21.1486 57.6421 21.6636 57.5676 22.1331ZM123.146 30.5096L119.859 20.4906C120.126 19.8936 122.923 13.4237 123.49 12.1557L123.239 14.6644C123.22 14.8555 123.248 15.0519 123.313 15.1989C123.378 15.3458 123.473 15.4342 123.576 15.4342H124.448C124.349 16.5787 123.437 27.1218 123.146 30.5096ZM113.579 12.0842L113.618 11.616C113.638 11.4274 113.609 11.2311 113.546 11.0828C113.48 10.9358 113.385 10.8487 113.284 10.8487H111.508C111.344 10.8448 111.201 11.0646 111.17 11.3741L111.12 11.8839L109.223 31.5656C109.206 31.7554 109.237 31.9544 109.303 32.1014C109.37 32.247 109.472 32.3342 109.575 32.3289L110.451 32.3042H111.274C111.438 32.3042 111.575 32.0871 111.607 31.7866L112.908 19.5724C113.338 16.4772 114.419 15.5552 115.374 15.2873C115.425 15.2743 115.618 15.2795 115.659 15.2301C115.004 22.6351 114.229 31.403 114.215 31.5513C114.198 31.7359 114.227 31.9284 114.292 32.0754C114.356 32.2197 114.453 32.3042 114.551 32.3042H116.462C116.612 32.3042 116.745 32.1222 116.787 31.8491C116.849 31.4927 117.306 26.4598 117.58 23.4362C118.288 25.4741 120.549 32.0064 120.549 32.0064C120.612 32.1885 120.72 32.2977 120.834 32.2977L123.119 32.3042C123.16 32.3042 123.198 32.286 123.237 32.2626C123.285 32.3042 123.339 32.3329 123.393 32.3289L125.322 32.3042C125.488 32.3016 125.628 32.0754 125.656 31.771L127.145 15.442L129.359 15.4355C129.525 15.4355 129.667 15.208 129.696 14.8984L129.994 11.603C129.998 11.5666 130 11.5328 130 11.4925C130 11.3442 129.971 11.1959 129.921 11.0789C129.856 10.9332 129.761 10.8487 129.658 10.8487H127.476C127.583 9.68347 127.971 5.38664 127.971 5.38664C127.973 5.35023 127.975 5.31381 127.975 5.2774C127.975 5.12264 127.948 4.97438 127.896 4.85994C127.832 4.71038 127.734 4.62975 127.635 4.62975H125.717C125.552 4.62975 125.41 4.85604 125.381 5.16556C125.381 5.16556 124.955 9.96828 124.875 10.8487C124.702 10.8591 124.524 10.8656 124.524 10.8656L124.224 10.8695L123.907 10.8591C123.785 10.8539 123.676 10.9723 123.613 11.1582C123.551 10.9814 123.447 10.8656 123.331 10.8656L121.576 10.8591H121.063C120.967 10.8591 120.877 10.9358 120.811 11.0672C120.811 11.0672 119.045 14.9088 118.108 16.8375C118.382 13.7813 119.138 5.39704 119.138 5.39704C119.141 5.35803 119.143 5.32292 119.143 5.2839C119.143 5.13304 119.113 4.98479 119.061 4.87035C118.997 4.72079 118.901 4.63756 118.801 4.63756L116.891 4.62975C116.723 4.62715 116.579 4.85474 116.552 5.16426C116.508 5.66495 116.31 7.89529 116.044 10.8695L116.035 10.8435C115.968 10.694 115.87 10.6159 115.767 10.6224C114.954 10.6679 114.219 11.3 113.579 12.0842Z" fill="white"/>
<path d="M73 16.5C73 18.433 71.433 20 69.5 20C67.567 20 66 18.433 66 16.5C66 14.567 67.567 13 69.5 13C71.433 13 73 14.567 73 16.5Z" fill="white"/>
</svg>
